<?xml version="1.0" encoding="UTF-8" standalone="no"?>
<!DOCTYPE svg PUBLIC "-//W3C//DTD SVG 1.1//EN"
 "http://www.w3.org/Graphics/SVG/1.1/DTD/svg11.dtd">
<!-- Generated by graphviz version 2.40.1 (20161225.0304)
 -->
<!-- Title: models_diagram Pages: 1 -->
<svg width="1520pt" height="1184pt"
 viewBox="0.00 0.00 1520.00 1184.00" xmlns="http://www.w3.org/2000/svg" xmlns:xlink="http://www.w3.org/1999/xlink">
<g id="graph0" class="graph" transform="scale(1 1) rotate(0) translate(36 1148)">
<title>models_diagram</title>
<polygon fill="#ffffff" stroke="transparent" points="-36,36 -36,-1148 1484,-1148 1484,36 -36,36"/>
<!-- User -->
<g id="node1" class="node">
<title>User</title>
<polygon fill="#add8e6" stroke="transparent" points="10,-247 10,-269 101,-269 101,-247 10,-247"/>
<polygon fill="none" stroke="#000000" points="10,-247 10,-269 101,-269 101,-247 10,-247"/>
<text text-anchor="start" x="46.062" y="-256" font-family="Times,serif" font-weight="bold" font-size="10.00" fill="#000000">User</text>
<polygon fill="none" stroke="#000000" points="10,-225 10,-247 101,-247 101,-225 10,-225"/>
<text text-anchor="start" x="15" y="-234" font-family="Times,serif" text-decoration="underline" font-size="10.00" fill="#000000">id</text>
<text text-anchor="start" x="22.779" y="-234" font-family="Times,serif" font-size="10.00" fill="#000000">: NUMBER</text>
<polygon fill="none" stroke="#000000" points="10,-203 10,-225 101,-225 101,-203 10,-203"/>
<text text-anchor="start" x="15" y="-211" font-family="Times,serif" font-size="10.00" fill="#000000">username: STRING</text>
<polygon fill="none" stroke="#000000" points="10,-181 10,-203 101,-203 101,-181 10,-181"/>
<text text-anchor="start" x="15" y="-189" font-family="Times,serif" font-size="10.00" fill="#000000">email: STRING</text>
<polygon fill="none" stroke="#000000" points="10,-159 10,-181 101,-181 101,-159 10,-159"/>
<text text-anchor="start" x="15" y="-167" font-family="Times,serif" font-size="10.00" fill="#000000">password: STRING</text>
<polygon fill="none" stroke="#000000" points="10,-137 10,-159 101,-159 101,-137 10,-137"/>
<text text-anchor="start" x="14.818" y="-145" font-family="Times,serif" font-size="10.00" fill="#000000">firstName: STRING</text>
<polygon fill="none" stroke="#000000" points="10,-115 10,-137 101,-137 101,-115 10,-115"/>
<text text-anchor="start" x="15" y="-123" font-family="Times,serif" font-size="10.00" fill="#000000">lastName: STRING</text>
</g>
<!-- Attribute -->
<g id="node2" class="node">
<title>Attribute</title>
<polygon fill="#add8e6" stroke="transparent" points="1061.5,-966 1061.5,-988 1171.5,-988 1171.5,-966 1061.5,-966"/>
<polygon fill="none" stroke="#000000" points="1061.5,-966 1061.5,-988 1171.5,-988 1171.5,-966 1061.5,-966"/>
<text text-anchor="start" x="1098.4485" y="-975" font-family="Times,serif" font-weight="bold" font-size="10.00" fill="#000000">Attribute</text>
<polygon fill="none" stroke="#000000" points="1061.5,-944 1061.5,-966 1171.5,-966 1171.5,-944 1061.5,-944"/>
<text text-anchor="start" x="1066.5" y="-953" font-family="Times,serif" text-decoration="underline" font-size="10.00" fill="#000000">id</text>
<text text-anchor="start" x="1074.279" y="-953" font-family="Times,serif" font-size="10.00" fill="#000000">: NUMBER</text>
<polygon fill="none" stroke="#000000" points="1061.5,-922 1061.5,-944 1171.5,-944 1171.5,-922 1061.5,-922"/>
<text text-anchor="start" x="1066.5" y="-930" font-family="Times,serif" font-size="10.00" fill="#000000">code: STRING</text>
<polygon fill="none" stroke="#000000" points="1061.5,-900 1061.5,-922 1171.5,-922 1171.5,-900 1061.5,-900"/>
<text text-anchor="start" x="1066.5" y="-908" font-family="Times,serif" font-size="10.00" fill="#000000">isEnabled: BOOLEAN</text>
<polygon fill="none" stroke="#000000" points="1061.5,-878 1061.5,-900 1171.5,-900 1171.5,-878 1061.5,-878"/>
<text text-anchor="start" x="1066.5" y="-886" font-family="Times,serif" font-size="10.00" fill="#000000">label: STRING</text>
<polygon fill="none" stroke="#000000" points="1061.5,-856 1061.5,-878 1171.5,-878 1171.5,-856 1061.5,-856"/>
<text text-anchor="start" x="1066.5" y="-864" font-family="Times,serif" font-size="10.00" fill="#000000">type: STRING</text>
<polygon fill="none" stroke="#000000" points="1061.5,-834 1061.5,-856 1171.5,-856 1171.5,-834 1061.5,-834"/>
<text text-anchor="start" x="1066.5" y="-842" font-family="Times,serif" font-size="10.00" fill="#000000">attributeOptions: JSON</text>
<polygon fill="none" stroke="#000000" points="1061.5,-812 1061.5,-834 1171.5,-834 1171.5,-812 1061.5,-812"/>
<text text-anchor="start" x="1066.5" y="-820" font-family="Times,serif" font-size="10.00" fill="#000000">isFilter: BOOLEAN</text>
<polygon fill="none" stroke="#000000" points="1061.5,-790 1061.5,-812 1171.5,-812 1171.5,-790 1061.5,-790"/>
<text text-anchor="start" x="1066.373" y="-798" font-family="Times,serif" font-size="10.00" fill="#000000">attributeGroup: STRING</text>
</g>
<!-- AttributeSetAttribute -->
<g id="node4" class="node">
<title>AttributeSetAttribute</title>
<polygon fill="#add8e6" stroke="transparent" points="1328,-673 1328,-695 1448,-695 1448,-673 1328,-673"/>
<polygon fill="none" stroke="#000000" points="1328,-673 1328,-695 1448,-695 1448,-673 1328,-673"/>
<text text-anchor="start" x="1345.5085" y="-682" font-family="Times,serif" font-weight="bold" font-size="10.00" fill="#000000">AttributeSetAttribute</text>
<polygon fill="none" stroke="#000000" points="1328,-651 1328,-673 1448,-673 1448,-651 1328,-651"/>
<text text-anchor="start" x="1333" y="-660" font-family="Times,serif" text-decoration="underline" font-size="10.00" fill="#000000">id</text>
<text text-anchor="start" x="1340.779" y="-660" font-family="Times,serif" font-size="10.00" fill="#000000">: NUMBER</text>
<polygon fill="none" stroke="#000000" points="1328,-629 1328,-651 1448,-651 1448,-629 1328,-629"/>
<text text-anchor="start" x="1332.869" y="-638" font-family="Times,serif" font-style="italic" text-decoration="underline" font-size="10.00" fill="#000000">attribute_set_id</text>
<text text-anchor="start" x="1395.078" y="-638" font-family="Times,serif" font-size="10.00" fill="#000000">: NUMBER</text>
<polygon fill="none" stroke="#000000" points="1328,-607 1328,-629 1448,-629 1448,-607 1328,-607"/>
<text text-anchor="start" x="1333" y="-616" font-family="Times,serif" font-style="italic" text-decoration="underline" font-size="10.00" fill="#000000">attribute_id</text>
<text text-anchor="start" x="1379.102" y="-616" font-family="Times,serif" font-size="10.00" fill="#000000">: NUMBER</text>
</g>
<!-- Attribute&#45;&gt;AttributeSetAttribute -->
<g id="edge1" class="edge">
<title>Attribute&#45;&gt;AttributeSetAttribute</title>
<path fill="none" stroke="#000000" stroke-width=".75" d="M1171.7693,-840.5503C1218.6868,-799.4219 1285.678,-740.6967 1332.6255,-699.542"/>
<polygon fill="#000000" stroke="#000000" stroke-width=".75" points="1332.878,-699.3205 1339.1697,-697.3957 1335.134,-697.343 1337.3899,-695.3654 1337.3899,-695.3654 1337.3899,-695.3654 1335.134,-697.343 1335.6101,-693.335 1332.878,-699.3205 1332.878,-699.3205"/>
</g>
<!-- AttributeSet -->
<g id="node3" class="node">
<title>AttributeSet</title>
<polygon fill="#add8e6" stroke="transparent" points="1065.5,-439 1065.5,-461 1167.5,-461 1167.5,-439 1065.5,-439"/>
<polygon fill="none" stroke="#000000" points="1065.5,-439 1065.5,-461 1167.5,-461 1167.5,-439 1065.5,-439"/>
<text text-anchor="start" x="1092.06" y="-448" font-family="Times,serif" font-weight="bold" font-size="10.00" fill="#000000">AttributeSet</text>
<polygon fill="none" stroke="#000000" points="1065.5,-417 1065.5,-439 1167.5,-439 1167.5,-417 1065.5,-417"/>
<text text-anchor="start" x="1070.5" y="-426" font-family="Times,serif" text-decoration="underline" font-size="10.00" fill="#000000">id</text>
<text text-anchor="start" x="1078.279" y="-426" font-family="Times,serif" font-size="10.00" fill="#000000">: NUMBER</text>
<polygon fill="none" stroke="#000000" points="1065.5,-395 1065.5,-417 1167.5,-417 1167.5,-395 1065.5,-395"/>
<text text-anchor="start" x="1070.5" y="-403" font-family="Times,serif" font-size="10.00" fill="#000000">code: STRING</text>
<polygon fill="none" stroke="#000000" points="1065.5,-373 1065.5,-395 1167.5,-395 1167.5,-373 1065.5,-373"/>
<text text-anchor="start" x="1070.262" y="-381" font-family="Times,serif" font-size="10.00" fill="#000000">isEnabled: BOOLEAN</text>
<polygon fill="none" stroke="#000000" points="1065.5,-351 1065.5,-373 1167.5,-373 1167.5,-351 1065.5,-351"/>
<text text-anchor="start" x="1070.5" y="-359" font-family="Times,serif" font-size="10.00" fill="#000000">name: STRING</text>
</g>
<!-- AttributeSet&#45;&gt;AttributeSetAttribute -->
<g id="edge2" class="edge">
<title>AttributeSet&#45;&gt;AttributeSetAttribute</title>
<path fill="none" stroke="#000000" stroke-width=".75" d="M1167.5671,-452.0826C1215.1853,-495.0531 1285.9499,-558.9106 1334.3755,-602.6096"/>
<polygon fill="#000000" stroke="#000000" stroke-width=".75" points="1334.5361,-602.7545 1337.1818,-608.7787 1336.7634,-604.7644 1338.9906,-606.7742 1338.9906,-606.7742 1338.9906,-606.7742 1336.7634,-604.7644 1340.7995,-604.7697 1334.5361,-602.7545 1334.5361,-602.7545"/>
</g>
<!-- Block -->
<g id="node5" class="node">
<title>Block</title>
<polygon fill="#add8e6" stroke="transparent" points="4,-922 4,-944 106,-944 106,-922 4,-922"/>
<polygon fill="none" stroke="#000000" points="4,-922 4,-944 106,-944 106,-922 4,-922"/>
<text text-anchor="start" x="43.0565" y="-931" font-family="Times,serif" font-weight="bold" font-size="10.00" fill="#000000">Block</text>
<polygon fill="none" stroke="#000000" points="4,-900 4,-922 106,-922 106,-900 4,-900"/>
<text text-anchor="start" x="9" y="-909" font-family="Times,serif" text-decoration="underline" font-size="10.00" fill="#000000">id</text>
<text text-anchor="start" x="16.779" y="-909" font-family="Times,serif" font-size="10.00" fill="#000000">: NUMBER</text>
<polygon fill="none" stroke="#000000" points="4,-878 4,-900 106,-900 106,-878 4,-878"/>
<text text-anchor="start" x="9" y="-886" font-family="Times,serif" font-size="10.00" fill="#000000">code: STRING</text>
<polygon fill="none" stroke="#000000" points="4,-856 4,-878 106,-878 106,-856 4,-856"/>
<text text-anchor="start" x="8.762" y="-864" font-family="Times,serif" font-size="10.00" fill="#000000">isEnabled: BOOLEAN</text>
<polygon fill="none" stroke="#000000" points="4,-834 4,-856 106,-856 106,-834 4,-834"/>
<text text-anchor="start" x="9" y="-842" font-family="Times,serif" font-size="10.00" fill="#000000">content: TEXT</text>
</g>
<!-- Category -->
<g id="node6" class="node">
<title>Category</title>
<polygon fill="#add8e6" stroke="transparent" points="780.5,-154 780.5,-176 885.5,-176 885.5,-154 780.5,-154"/>
<polygon fill="none" stroke="#000000" points="780.5,-154 780.5,-176 885.5,-176 885.5,-154 780.5,-154"/>
<text text-anchor="start" x="814.6725" y="-163" font-family="Times,serif" font-weight="bold" font-size="10.00" fill="#000000">Category</text>
<polygon fill="none" stroke="#000000" points="780.5,-132 780.5,-154 885.5,-154 885.5,-132 780.5,-132"/>
<text text-anchor="start" x="785.5" y="-141" font-family="Times,serif" text-decoration="underline" font-size="10.00" fill="#000000">id</text>
<text text-anchor="start" x="793.279" y="-141" font-family="Times,serif" font-size="10.00" fill="#000000">: NUMBER</text>
<polygon fill="none" stroke="#000000" points="780.5,-110 780.5,-132 885.5,-132 885.5,-110 780.5,-110"/>
<text text-anchor="start" x="785.5" y="-118" font-family="Times,serif" font-size="10.00" fill="#000000">urlKey: STRING</text>
<polygon fill="none" stroke="#000000" points="780.5,-88 780.5,-110 885.5,-110 885.5,-88 780.5,-88"/>
<text text-anchor="start" x="785.5" y="-96" font-family="Times,serif" font-size="10.00" fill="#000000">isEnabled: BOOLEAN</text>
<polygon fill="none" stroke="#000000" points="780.5,-66 780.5,-88 885.5,-88 885.5,-66 780.5,-66"/>
<text text-anchor="start" x="785.5" y="-74" font-family="Times,serif" font-size="10.00" fill="#000000">name: STRING</text>
<polygon fill="none" stroke="#000000" points="780.5,-44 780.5,-66 885.5,-66 885.5,-44 780.5,-44"/>
<text text-anchor="start" x="785.5" y="-52" font-family="Times,serif" font-size="10.00" fill="#000000">isInMenu: BOOLEAN</text>
<polygon fill="none" stroke="#000000" points="780.5,-22 780.5,-44 885.5,-44 885.5,-22 780.5,-22"/>
<text text-anchor="start" x="785.5" y="-30" font-family="Times,serif" font-size="10.00" fill="#000000">content: TEXT</text>
<polygon fill="none" stroke="#000000" points="780.5,0 780.5,-22 885.5,-22 885.5,0 780.5,0"/>
<text text-anchor="start" x="785.3715" y="-9" font-family="Times,serif" font-style="italic" text-decoration="underline" font-size="10.00" fill="#000000">category_id</text>
<text text-anchor="start" x="832.5755" y="-9" font-family="Times,serif" font-size="10.00" fill="#000000">: NUMBER</text>
</g>
<!-- ProductCategory -->
<g id="node17" class="node">
<title>ProductCategory</title>
<polygon fill="#add8e6" stroke="transparent" points="1064.5,-205 1064.5,-227 1169.5,-227 1169.5,-205 1064.5,-205"/>
<polygon fill="none" stroke="#000000" points="1064.5,-205 1064.5,-227 1169.5,-227 1169.5,-205 1064.5,-205"/>
<text text-anchor="start" x="1083.1195" y="-214" font-family="Times,serif" font-weight="bold" font-size="10.00" fill="#000000">ProductCategory</text>
<polygon fill="none" stroke="#000000" points="1064.5,-183 1064.5,-205 1169.5,-205 1169.5,-183 1064.5,-183"/>
<text text-anchor="start" x="1069.5" y="-192" font-family="Times,serif" text-decoration="underline" font-size="10.00" fill="#000000">id</text>
<text text-anchor="start" x="1077.279" y="-192" font-family="Times,serif" font-size="10.00" fill="#000000">: NUMBER</text>
<polygon fill="none" stroke="#000000" points="1064.5,-161 1064.5,-183 1169.5,-183 1169.5,-161 1064.5,-161"/>
<text text-anchor="start" x="1069.5" y="-170" font-family="Times,serif" font-style="italic" text-decoration="underline" font-size="10.00" fill="#000000">product_id</text>
<text text-anchor="start" x="1112.826" y="-170" font-family="Times,serif" font-size="10.00" fill="#000000">: NUMBER</text>
<polygon fill="none" stroke="#000000" points="1064.5,-139 1064.5,-161 1169.5,-161 1169.5,-139 1064.5,-139"/>
<text text-anchor="start" x="1069.3715" y="-148" font-family="Times,serif" font-style="italic" text-decoration="underline" font-size="10.00" fill="#000000">category_id</text>
<text text-anchor="start" x="1116.5755" y="-148" font-family="Times,serif" font-size="10.00" fill="#000000">: NUMBER</text>
</g>
<!-- Category&#45;&gt;ProductCategory -->
<g id="edge3" class="edge">
<title>Category&#45;&gt;ProductCategory</title>
<path fill="none" stroke="#000000" stroke-width=".75" d="M891.0172,-107.5744C939.766,-123.8812 1008.8693,-146.9968 1057.6974,-163.3301"/>
<polygon fill="#000000" stroke="#000000" stroke-width=".75" points="890.9427,-107.5496 886.1092,-103.0856 888.0977,-106.5979 885.2526,-105.6461 885.2526,-105.6461 885.2526,-105.6461 888.0977,-106.5979 884.3961,-108.2067 890.9427,-107.5496 890.9427,-107.5496"/>
<polygon fill="#000000" stroke="#000000" stroke-width=".75" points="1057.8587,-163.384 1062.6922,-167.848 1060.7037,-164.3357 1063.5488,-165.2874 1063.5488,-165.2874 1063.5488,-165.2874 1060.7037,-164.3357 1064.4053,-162.7269 1057.8587,-163.384 1057.8587,-163.384"/>
</g>
<!-- Customer -->
<g id="node7" class="node">
<title>Customer</title>
<polygon fill="#add8e6" stroke="transparent" points="780.5,-776 780.5,-798 885.5,-798 885.5,-776 780.5,-776"/>
<polygon fill="none" stroke="#000000" points="780.5,-776 780.5,-798 885.5,-798 885.5,-776 780.5,-776"/>
<text text-anchor="start" x="813.558" y="-785" font-family="Times,serif" font-weight="bold" font-size="10.00" fill="#000000">Customer</text>
<polygon fill="none" stroke="#000000" points="780.5,-754 780.5,-776 885.5,-776 885.5,-754 780.5,-754"/>
<text text-anchor="start" x="785.5" y="-763" font-family="Times,serif" text-decoration="underline" font-size="10.00" fill="#000000">id</text>
<text text-anchor="start" x="793.279" y="-763" font-family="Times,serif" font-size="10.00" fill="#000000">: NUMBER</text>
<polygon fill="none" stroke="#000000" points="780.5,-732 780.5,-754 885.5,-754 885.5,-732 780.5,-732"/>
<text text-anchor="start" x="785.5" y="-740" font-family="Times,serif" font-size="10.00" fill="#000000">email: STRING</text>
<polygon fill="none" stroke="#000000" points="780.5,-710 780.5,-732 885.5,-732 885.5,-710 780.5,-710"/>
<text text-anchor="start" x="785.5" y="-718" font-family="Times,serif" font-size="10.00" fill="#000000">password: STRING</text>
<polygon fill="none" stroke="#000000" points="780.5,-688 780.5,-710 885.5,-710 885.5,-688 780.5,-688"/>
<text text-anchor="start" x="785.5" y="-696" font-family="Times,serif" font-size="10.00" fill="#000000">firstName: STRING</text>
<polygon fill="none" stroke="#000000" points="780.5,-666 780.5,-688 885.5,-688 885.5,-666 780.5,-666"/>
<text text-anchor="start" x="785.5" y="-674" font-family="Times,serif" font-size="10.00" fill="#000000">lastName: STRING</text>
<polygon fill="none" stroke="#000000" points="780.5,-644 780.5,-666 885.5,-666 885.5,-644 780.5,-644"/>
<text text-anchor="start" x="785.092" y="-652" font-family="Times,serif" font-size="10.00" fill="#000000">isSignedIn: BOOLEAN</text>
<polygon fill="none" stroke="#000000" points="780.5,-622 780.5,-644 885.5,-644 885.5,-622 780.5,-622"/>
<text text-anchor="start" x="785.5" y="-630" font-family="Times,serif" font-size="10.00" fill="#000000">isGuest: BOOLEAN</text>
</g>
<!-- CustomerCustomerGroup -->
<g id="node10" class="node">
<title>CustomerCustomerGroup</title>
<polygon fill="#add8e6" stroke="transparent" points="1049.5,-732 1049.5,-754 1184.5,-754 1184.5,-732 1049.5,-732"/>
<polygon fill="none" stroke="#000000" points="1049.5,-732 1049.5,-754 1184.5,-754 1184.5,-732 1049.5,-732"/>
<text text-anchor="start" x="1065.342" y="-741" font-family="Times,serif" font-weight="bold" font-size="10.00" fill="#000000">CustomerCustomerGroup</text>
<polygon fill="none" stroke="#000000" points="1049.5,-710 1049.5,-732 1184.5,-732 1184.5,-710 1049.5,-710"/>
<text text-anchor="start" x="1054.5" y="-719" font-family="Times,serif" text-decoration="underline" font-size="10.00" fill="#000000">id</text>
<text text-anchor="start" x="1062.279" y="-719" font-family="Times,serif" font-size="10.00" fill="#000000">: NUMBER</text>
<polygon fill="none" stroke="#000000" points="1049.5,-688 1049.5,-710 1184.5,-710 1184.5,-688 1049.5,-688"/>
<text text-anchor="start" x="1054.5" y="-697" font-family="Times,serif" font-style="italic" text-decoration="underline" font-size="10.00" fill="#000000">customer_id</text>
<text text-anchor="start" x="1103.933" y="-697" font-family="Times,serif" font-size="10.00" fill="#000000">: NUMBER</text>
<polygon fill="none" stroke="#000000" points="1049.5,-666 1049.5,-688 1184.5,-688 1184.5,-666 1049.5,-666"/>
<text text-anchor="start" x="1054.0925" y="-675" font-family="Times,serif" font-style="italic" text-decoration="underline" font-size="10.00" fill="#000000">customer_group_id</text>
<text text-anchor="start" x="1131.8545" y="-675" font-family="Times,serif" font-size="10.00" fill="#000000">: NUMBER</text>
</g>
<!-- Customer&#45;&gt;CustomerCustomerGroup -->
<g id="edge4" class="edge">
<title>Customer&#45;&gt;CustomerCustomerGroup</title>
<path fill="none" stroke="#000000" stroke-width=".75" d="M885.2526,-710C929.5563,-710 993.3517,-710 1042.7185,-710"/>
<polygon fill="#000000" stroke="#000000" stroke-width=".75" points="1042.9709,-710.0001 1048.9709,-712.7 1045.9709,-710 1048.9709,-710 1048.9709,-710 1048.9709,-710 1045.9709,-710 1048.9709,-707.3 1042.9709,-710.0001 1042.9709,-710.0001"/>
</g>
<!-- CartItem -->
<g id="node15" class="node">
<title>CartItem</title>
<polygon fill="#add8e6" stroke="transparent" points="1063.5,-593 1063.5,-615 1170.5,-615 1170.5,-593 1063.5,-593"/>
<polygon fill="none" stroke="#000000" points="1063.5,-593 1063.5,-615 1170.5,-615 1170.5,-593 1063.5,-593"/>
<text text-anchor="start" x="1099.229" y="-602" font-family="Times,serif" font-weight="bold" font-size="10.00" fill="#000000">CartItem</text>
<polygon fill="none" stroke="#000000" points="1063.5,-571 1063.5,-593 1170.5,-593 1170.5,-571 1063.5,-571"/>
<text text-anchor="start" x="1068.5" y="-580" font-family="Times,serif" text-decoration="underline" font-size="10.00" fill="#000000">id</text>
<text text-anchor="start" x="1076.279" y="-580" font-family="Times,serif" font-size="10.00" fill="#000000">: NUMBER</text>
<polygon fill="none" stroke="#000000" points="1063.5,-549 1063.5,-571 1170.5,-571 1170.5,-549 1063.5,-549"/>
<text text-anchor="start" x="1068.5" y="-557" font-family="Times,serif" font-size="10.00" fill="#000000">quantity: NUMBER</text>
<polygon fill="none" stroke="#000000" points="1063.5,-527 1063.5,-549 1170.5,-549 1170.5,-527 1063.5,-527"/>
<text text-anchor="start" x="1068.257" y="-536" font-family="Times,serif" font-style="italic" text-decoration="underline" font-size="10.00" fill="#000000">customer_id</text>
<text text-anchor="start" x="1117.69" y="-536" font-family="Times,serif" font-size="10.00" fill="#000000">: NUMBER</text>
<polygon fill="none" stroke="#000000" points="1063.5,-505 1063.5,-527 1170.5,-527 1170.5,-505 1063.5,-505"/>
<text text-anchor="start" x="1068.5" y="-514" font-family="Times,serif" font-style="italic" text-decoration="underline" font-size="10.00" fill="#000000">product_id</text>
<text text-anchor="start" x="1111.826" y="-514" font-family="Times,serif" font-size="10.00" fill="#000000">: NUMBER</text>
</g>
<!-- Customer&#45;&gt;CartItem -->
<g id="edge5" class="edge">
<title>Customer&#45;&gt;CartItem</title>
<path fill="none" stroke="#000000" stroke-width=".75" d="M885.2526,-682.1377C934.0058,-656.3878 1006.3627,-618.1711 1057.1216,-591.3618"/>
<polygon fill="#000000" stroke="#000000" stroke-width=".75" points="1057.2765,-591.28 1063.843,-590.8653 1059.9293,-589.8789 1062.582,-588.4778 1062.582,-588.4778 1062.582,-588.4778 1059.9293,-589.8789 1061.321,-586.0904 1057.2765,-591.28 1057.2765,-591.28"/>
</g>
<!-- Address -->
<g id="node8" class="node">
<title>Address</title>
<polygon fill="#add8e6" stroke="transparent" points="508,-820 508,-842 616,-842 616,-820 508,-820"/>
<polygon fill="none" stroke="#000000" points="508,-820 508,-842 616,-842 616,-820 508,-820"/>
<text text-anchor="start" x="545.6175" y="-829" font-family="Times,serif" font-weight="bold" font-size="10.00" fill="#000000">Address</text>
<polygon fill="none" stroke="#000000" points="508,-798 508,-820 616,-820 616,-798 508,-798"/>
<text text-anchor="start" x="513" y="-807" font-family="Times,serif" text-decoration="underline" font-size="10.00" fill="#000000">id</text>
<text text-anchor="start" x="520.779" y="-807" font-family="Times,serif" font-size="10.00" fill="#000000">: NUMBER</text>
<polygon fill="none" stroke="#000000" points="508,-776 508,-798 616,-798 616,-776 508,-776"/>
<text text-anchor="start" x="513" y="-784" font-family="Times,serif" font-size="10.00" fill="#000000">firstName: STRING</text>
<polygon fill="none" stroke="#000000" points="508,-754 508,-776 616,-776 616,-754 508,-754"/>
<text text-anchor="start" x="513" y="-762" font-family="Times,serif" font-size="10.00" fill="#000000">lastName: STRING</text>
<polygon fill="none" stroke="#000000" points="508,-732 508,-754 616,-754 616,-732 508,-732"/>
<text text-anchor="start" x="512.706" y="-740" font-family="Times,serif" font-size="10.00" fill="#000000">phoneNumber: STRING</text>
<polygon fill="none" stroke="#000000" points="508,-710 508,-732 616,-732 616,-710 508,-710"/>
<text text-anchor="start" x="513" y="-718" font-family="Times,serif" font-size="10.00" fill="#000000">country: STRING</text>
<polygon fill="none" stroke="#000000" points="508,-688 508,-710 616,-710 616,-688 508,-688"/>
<text text-anchor="start" x="513" y="-696" font-family="Times,serif" font-size="10.00" fill="#000000">city: STRING</text>
<polygon fill="none" stroke="#000000" points="508,-666 508,-688 616,-688 616,-666 508,-666"/>
<text text-anchor="start" x="513" y="-674" font-family="Times,serif" font-size="10.00" fill="#000000">province: STRING</text>
<polygon fill="none" stroke="#000000" points="508,-644 508,-666 616,-666 616,-644 508,-644"/>
<text text-anchor="start" x="513" y="-652" font-family="Times,serif" font-size="10.00" fill="#000000">street1: STRING</text>
<polygon fill="none" stroke="#000000" points="508,-622 508,-644 616,-644 616,-622 508,-622"/>
<text text-anchor="start" x="513" y="-630" font-family="Times,serif" font-size="10.00" fill="#000000">street2: STRING</text>
<polygon fill="none" stroke="#000000" points="508,-600 508,-622 616,-622 616,-600 508,-600"/>
<text text-anchor="start" x="513" y="-608" font-family="Times,serif" font-size="10.00" fill="#000000">postalCode: STRING</text>
<polygon fill="none" stroke="#000000" points="508,-578 508,-600 616,-600 616,-578 508,-578"/>
<text text-anchor="start" x="513" y="-587" font-family="Times,serif" font-style="italic" text-decoration="underline" font-size="10.00" fill="#000000">customer_id</text>
<text text-anchor="start" x="562.433" y="-587" font-family="Times,serif" font-size="10.00" fill="#000000">: NUMBER</text>
</g>
<!-- Address&#45;&gt;Customer -->
<g id="edge9" class="edge">
<title>Address&#45;&gt;Customer</title>
<path fill="none" stroke="#000000" stroke-width=".75" d="M622.3455,-710C669.6165,-710 734.7185,-710 779.8849,-710"/>
<polygon fill="#000000" stroke="#000000" stroke-width=".75" points="622.0896,-710.0001 616.0896,-707.3 619.0896,-710 616.0896,-710 616.0896,-710 616.0896,-710 619.0896,-710 616.0895,-712.7 622.0896,-710.0001 622.0896,-710.0001"/>
</g>
<!-- CustomerGroup -->
<g id="node9" class="node">
<title>CustomerGroup</title>
<polygon fill="#add8e6" stroke="transparent" points="795.5,-900 795.5,-922 869.5,-922 869.5,-900 795.5,-900"/>
<polygon fill="none" stroke="#000000" points="795.5,-900 795.5,-922 869.5,-922 869.5,-900 795.5,-900"/>
<text text-anchor="start" x="800.284" y="-909" font-family="Times,serif" font-weight="bold" font-size="10.00" fill="#000000">CustomerGroup</text>
<polygon fill="none" stroke="#000000" points="795.5,-878 795.5,-900 869.5,-900 869.5,-878 795.5,-878"/>
<text text-anchor="start" x="800.5" y="-887" font-family="Times,serif" text-decoration="underline" font-size="10.00" fill="#000000">id</text>
<text text-anchor="start" x="808.279" y="-887" font-family="Times,serif" font-size="10.00" fill="#000000">: NUMBER</text>
<polygon fill="none" stroke="#000000" points="795.5,-856 795.5,-878 869.5,-878 869.5,-856 795.5,-856"/>
<text text-anchor="start" x="800.5" y="-864" font-family="Times,serif" font-size="10.00" fill="#000000">code: STRING</text>
<polygon fill="none" stroke="#000000" points="795.5,-834 795.5,-856 869.5,-856 869.5,-834 795.5,-834"/>
<text text-anchor="start" x="800.5" y="-842" font-family="Times,serif" font-size="10.00" fill="#000000">name: STRING</text>
</g>
<!-- CustomerGroup&#45;&gt;CustomerCustomerGroup -->
<g id="edge6" class="edge">
<title>CustomerGroup&#45;&gt;CustomerCustomerGroup</title>
<path fill="none" stroke="#000000" stroke-width=".75" d="M869.628,-856.0369C913.6162,-830.0158 987.94,-786.0496 1043.5687,-753.1425"/>
<polygon fill="#000000" stroke="#000000" stroke-width=".75" points="1043.7279,-753.0483 1050.2668,-752.3173 1046.31,-751.5209 1048.8921,-749.9934 1048.8921,-749.9934 1048.8921,-749.9934 1046.31,-751.5209 1047.5174,-747.6696 1043.7279,-753.0483 1043.7279,-753.0483"/>
</g>
<!-- Order -->
<g id="node11" class="node">
<title>Order</title>
<polygon fill="#add8e6" stroke="transparent" points="254,-809 254,-831 364,-831 364,-809 254,-809"/>
<polygon fill="none" stroke="#000000" points="254,-809 254,-831 364,-831 364,-809 254,-809"/>
<text text-anchor="start" x="297.342" y="-818" font-family="Times,serif" font-weight="bold" font-size="10.00" fill="#000000">Order</text>
<polygon fill="none" stroke="#000000" points="254,-787 254,-809 364,-809 364,-787 254,-787"/>
<text text-anchor="start" x="259" y="-796" font-family="Times,serif" text-decoration="underline" font-size="10.00" fill="#000000">id</text>
<text text-anchor="start" x="266.779" y="-796" font-family="Times,serif" font-size="10.00" fill="#000000">: NUMBER</text>
<polygon fill="none" stroke="#000000" points="254,-765 254,-787 364,-787 364,-765 254,-765"/>
<text text-anchor="start" x="259" y="-773" font-family="Times,serif" font-size="10.00" fill="#000000">reference: STRING</text>
<polygon fill="none" stroke="#000000" points="254,-743 254,-765 364,-765 364,-743 254,-743"/>
<text text-anchor="start" x="259" y="-751" font-family="Times,serif" font-size="10.00" fill="#000000">date: DATE</text>
<polygon fill="none" stroke="#000000" points="254,-721 254,-743 364,-743 364,-721 254,-721"/>
<text text-anchor="start" x="259" y="-729" font-family="Times,serif" font-size="10.00" fill="#000000">status: STRING</text>
<polygon fill="none" stroke="#000000" points="254,-699 254,-721 364,-721 364,-699 254,-699"/>
<text text-anchor="start" x="258.5935" y="-707" font-family="Times,serif" font-size="10.00" fill="#000000">totalDelivery: NUMBER</text>
<polygon fill="none" stroke="#000000" points="254,-677 254,-699 364,-699 364,-677 254,-677"/>
<text text-anchor="start" x="259" y="-685" font-family="Times,serif" font-size="10.00" fill="#000000">totalTax: NUMBER</text>
<polygon fill="none" stroke="#000000" points="254,-655 254,-677 364,-677 364,-655 254,-655"/>
<text text-anchor="start" x="259" y="-663" font-family="Times,serif" font-size="10.00" fill="#000000">subtotal: NUMBER</text>
<polygon fill="none" stroke="#000000" points="254,-633 254,-655 364,-655 364,-633 254,-633"/>
<text text-anchor="start" x="259" y="-641" font-family="Times,serif" font-size="10.00" fill="#000000">total: NUMBER</text>
<polygon fill="none" stroke="#000000" points="254,-611 254,-633 364,-633 364,-611 254,-611"/>
<text text-anchor="start" x="259" y="-620" font-family="Times,serif" font-style="italic" text-decoration="underline" font-size="10.00" fill="#000000">customer_id</text>
<text text-anchor="start" x="308.433" y="-620" font-family="Times,serif" font-size="10.00" fill="#000000">: NUMBER</text>
<polygon fill="none" stroke="#000000" points="254,-589 254,-611 364,-611 364,-589 254,-589"/>
<text text-anchor="start" x="259" y="-598" font-family="Times,serif" font-style="italic" text-decoration="underline" font-size="10.00" fill="#000000">address_id</text>
<text text-anchor="start" x="301.764" y="-598" font-family="Times,serif" font-size="10.00" fill="#000000">: NUMBER</text>
</g>
<!-- Order&#45;&gt;Customer -->
<g id="edge11" class="edge">
<title>Order&#45;&gt;Customer</title>
<path fill="none" stroke="#000000" stroke-width=".75" d="M368.906,-771.6307C405.5467,-804.7827 455.3856,-842.3915 508,-860 553.5185,-875.2337 570.1859,-874.3203 616,-860 678.4114,-840.4918 738.6514,-795.9739 779.6718,-760.4739"/>
<polygon fill="#000000" stroke="#000000" stroke-width=".75" points="368.4807,-771.242 365.8729,-765.2013 366.2661,-769.2182 364.0515,-767.1945 364.0515,-767.1945 364.0515,-767.1945 366.2661,-769.2182 362.2301,-769.1876 368.4807,-771.242 368.4807,-771.242"/>
</g>
<!-- Order&#45;&gt;Address -->
<g id="edge10" class="edge">
<title>Order&#45;&gt;Address</title>
<path fill="none" stroke="#000000" stroke-width=".75" d="M370.3023,-710C412.2698,-710 467.4123,-710 507.7779,-710"/>
<polygon fill="#000000" stroke="#000000" stroke-width=".75" points="370.2093,-710.0001 364.2093,-707.3 367.2093,-710 364.2093,-710 364.2093,-710 364.2093,-710 367.2093,-710 364.2092,-712.7 370.2093,-710.0001 370.2093,-710.0001"/>
</g>
<!-- Invoice -->
<g id="node12" class="node">
<title>Invoice</title>
<polygon fill="#add8e6" stroke="transparent" points="0,-776 0,-798 110,-798 110,-776 0,-776"/>
<polygon fill="none" stroke="#000000" points="0,-776 0,-798 110,-798 110,-776 0,-776"/>
<text text-anchor="start" x="40.007" y="-785" font-family="Times,serif" font-weight="bold" font-size="10.00" fill="#000000">Invoice</text>
<polygon fill="none" stroke="#000000" points="0,-754 0,-776 110,-776 110,-754 0,-754"/>
<text text-anchor="start" x="5" y="-763" font-family="Times,serif" text-decoration="underline" font-size="10.00" fill="#000000">id</text>
<text text-anchor="start" x="12.779" y="-763" font-family="Times,serif" font-size="10.00" fill="#000000">: NUMBER</text>
<polygon fill="none" stroke="#000000" points="0,-732 0,-754 110,-754 110,-732 0,-732"/>
<text text-anchor="start" x="5" y="-740" font-family="Times,serif" font-size="10.00" fill="#000000">date: DATE</text>
<polygon fill="none" stroke="#000000" points="0,-710 0,-732 110,-732 110,-710 0,-710"/>
<text text-anchor="start" x="4.5935" y="-718" font-family="Times,serif" font-size="10.00" fill="#000000">totalDelivery: NUMBER</text>
<polygon fill="none" stroke="#000000" points="0,-688 0,-710 110,-710 110,-688 0,-688"/>
<text text-anchor="start" x="5" y="-696" font-family="Times,serif" font-size="10.00" fill="#000000">totalTax: NUMBER</text>
<polygon fill="none" stroke="#000000" points="0,-666 0,-688 110,-688 110,-666 0,-666"/>
<text text-anchor="start" x="5" y="-674" font-family="Times,serif" font-size="10.00" fill="#000000">subtotal: NUMBER</text>
<polygon fill="none" stroke="#000000" points="0,-644 0,-666 110,-666 110,-644 0,-644"/>
<text text-anchor="start" x="5" y="-652" font-family="Times,serif" font-size="10.00" fill="#000000">total: NUMBER</text>
<polygon fill="none" stroke="#000000" points="0,-622 0,-644 110,-644 110,-622 0,-622"/>
<text text-anchor="start" x="5" y="-631" font-family="Times,serif" font-style="italic" text-decoration="underline" font-size="10.00" fill="#000000">order_id</text>
<text text-anchor="start" x="38.876" y="-631" font-family="Times,serif" font-size="10.00" fill="#000000">: NUMBER</text>
</g>
<!-- Invoice&#45;&gt;Order -->
<g id="edge12" class="edge">
<title>Invoice&#45;&gt;Order</title>
<path fill="none" stroke="#000000" stroke-width=".75" d="M110.1142,-710C152.7185,-710 211.4162,-710 253.9933,-710"/>
</g>
<!-- Page -->
<g id="node13" class="node">
<title>Page</title>
<polygon fill="#add8e6" stroke="transparent" points="4,-1090 4,-1112 106,-1112 106,-1090 4,-1090"/>
<polygon fill="none" stroke="#000000" points="4,-1090 4,-1112 106,-1112 106,-1090 4,-1090"/>
<text text-anchor="start" x="45.2815" y="-1099" font-family="Times,serif" font-weight="bold" font-size="10.00" fill="#000000">Page</text>
<polygon fill="none" stroke="#000000" points="4,-1068 4,-1090 106,-1090 106,-1068 4,-1068"/>
<text text-anchor="start" x="9" y="-1077" font-family="Times,serif" text-decoration="underline" font-size="10.00" fill="#000000">id</text>
<text text-anchor="start" x="16.779" y="-1077" font-family="Times,serif" font-size="10.00" fill="#000000">: NUMBER</text>
<polygon fill="none" stroke="#000000" points="4,-1046 4,-1068 106,-1068 106,-1046 4,-1046"/>
<text text-anchor="start" x="9" y="-1054" font-family="Times,serif" font-size="10.00" fill="#000000">urlKey: STRING</text>
<polygon fill="none" stroke="#000000" points="4,-1024 4,-1046 106,-1046 106,-1024 4,-1024"/>
<text text-anchor="start" x="8.762" y="-1032" font-family="Times,serif" font-size="10.00" fill="#000000">isEnabled: BOOLEAN</text>
<polygon fill="none" stroke="#000000" points="4,-1002 4,-1024 106,-1024 106,-1002 4,-1002"/>
<text text-anchor="start" x="9" y="-1010" font-family="Times,serif" font-size="10.00" fill="#000000">title: STRING</text>
<polygon fill="none" stroke="#000000" points="4,-980 4,-1002 106,-1002 106,-980 4,-980"/>
<text text-anchor="start" x="9" y="-988" font-family="Times,serif" font-size="10.00" fill="#000000">content: STRING</text>
</g>
<!-- Product -->
<g id="node14" class="node">
<title>Product</title>
<polygon fill="#add8e6" stroke="transparent" points="760.5,-564 760.5,-586 905.5,-586 905.5,-564 760.5,-564"/>
<polygon fill="none" stroke="#000000" points="760.5,-564 760.5,-586 905.5,-586 905.5,-564 760.5,-564"/>
<text text-anchor="start" x="817.447" y="-573" font-family="Times,serif" font-weight="bold" font-size="10.00" fill="#000000">Product</text>
<polygon fill="none" stroke="#000000" points="760.5,-542 760.5,-564 905.5,-564 905.5,-542 760.5,-542"/>
<text text-anchor="start" x="765.5" y="-551" font-family="Times,serif" text-decoration="underline" font-size="10.00" fill="#000000">id</text>
<text text-anchor="start" x="773.279" y="-551" font-family="Times,serif" font-size="10.00" fill="#000000">: NUMBER</text>
<polygon fill="none" stroke="#000000" points="760.5,-520 760.5,-542 905.5,-542 905.5,-520 760.5,-520"/>
<text text-anchor="start" x="765.5" y="-528" font-family="Times,serif" font-size="10.00" fill="#000000">urlKey: STRING</text>
<polygon fill="none" stroke="#000000" points="760.5,-498 760.5,-520 905.5,-520 905.5,-498 760.5,-498"/>
<text text-anchor="start" x="765.5" y="-506" font-family="Times,serif" font-size="10.00" fill="#000000">sku: STRING</text>
<polygon fill="none" stroke="#000000" points="760.5,-476 760.5,-498 905.5,-498 905.5,-476 760.5,-476"/>
<text text-anchor="start" x="765.5" y="-484" font-family="Times,serif" font-size="10.00" fill="#000000">isEnabled: BOOLEAN</text>
<polygon fill="none" stroke="#000000" points="760.5,-454 760.5,-476 905.5,-476 905.5,-454 760.5,-454"/>
<text text-anchor="start" x="765.5" y="-462" font-family="Times,serif" font-size="10.00" fill="#000000">name: STRING</text>
<polygon fill="none" stroke="#000000" points="760.5,-432 760.5,-454 905.5,-454 905.5,-432 760.5,-432"/>
<text text-anchor="start" x="765.5" y="-440" font-family="Times,serif" font-size="10.00" fill="#000000">price: NUMBER</text>
<polygon fill="none" stroke="#000000" points="760.5,-410 760.5,-432 905.5,-432 905.5,-410 760.5,-410"/>
<text text-anchor="start" x="765.5" y="-418" font-family="Times,serif" font-size="10.00" fill="#000000">stockQuantity: NUMBER</text>
<polygon fill="none" stroke="#000000" points="760.5,-388 760.5,-410 905.5,-410 905.5,-388 760.5,-388"/>
<text text-anchor="start" x="765.5" y="-396" font-family="Times,serif" font-size="10.00" fill="#000000">specialDiscountType: STRING</text>
<polygon fill="none" stroke="#000000" points="760.5,-366 760.5,-388 905.5,-388 905.5,-366 760.5,-366"/>
<text text-anchor="start" x="765.101" y="-374" font-family="Times,serif" font-size="10.00" fill="#000000">specialDiscountValue: NUMBER</text>
<polygon fill="none" stroke="#000000" points="760.5,-344 760.5,-366 905.5,-366 905.5,-344 760.5,-344"/>
<text text-anchor="start" x="765.5" y="-352" font-family="Times,serif" font-size="10.00" fill="#000000">specialTaxRate: NUMBER</text>
<polygon fill="none" stroke="#000000" points="760.5,-322 760.5,-344 905.5,-344 905.5,-322 760.5,-322"/>
<text text-anchor="start" x="765.5" y="-330" font-family="Times,serif" font-size="10.00" fill="#000000">shortDescription: STRING</text>
<polygon fill="none" stroke="#000000" points="760.5,-300 760.5,-322 905.5,-322 905.5,-300 760.5,-300"/>
<text text-anchor="start" x="765.5" y="-308" font-family="Times,serif" font-size="10.00" fill="#000000">longDescription: TEXT</text>
<polygon fill="none" stroke="#000000" points="760.5,-278 760.5,-300 905.5,-300 905.5,-278 760.5,-278"/>
<text text-anchor="start" x="765.5" y="-286" font-family="Times,serif" font-size="10.00" fill="#000000">media: JSON</text>
<polygon fill="none" stroke="#000000" points="760.5,-256 760.5,-278 905.5,-278 905.5,-256 760.5,-256"/>
<text text-anchor="start" x="765.5" y="-264" font-family="Times,serif" font-size="10.00" fill="#000000">attributeValues: JSON</text>
<polygon fill="none" stroke="#000000" points="760.5,-234 760.5,-256 905.5,-256 905.5,-234 760.5,-234"/>
<text text-anchor="start" x="765.5" y="-242" font-family="Times,serif" font-size="10.00" fill="#000000">soldAmount: NUMBER</text>
<polygon fill="none" stroke="#000000" points="760.5,-212 760.5,-234 905.5,-234 905.5,-212 760.5,-212"/>
<text text-anchor="start" x="765.5" y="-221" font-family="Times,serif" font-style="italic" text-decoration="underline" font-size="10.00" fill="#000000">attribute_set_id</text>
<text text-anchor="start" x="827.709" y="-221" font-family="Times,serif" font-size="10.00" fill="#000000">: NUMBER</text>
</g>
<!-- Product&#45;&gt;AttributeSet -->
<g id="edge13" class="edge">
<title>Product&#45;&gt;AttributeSet</title>
<path fill="none" stroke="#000000" stroke-width=".75" d="M911.5105,-400.9474C960.7209,-402.1604 1022.5894,-403.6853 1065.4171,-404.7409"/>
<polygon fill="#000000" stroke="#000000" stroke-width=".75" points="911.2664,-400.9415 905.3348,-398.0944 908.2674,-400.8676 905.2683,-400.7936 905.2683,-400.7936 905.2683,-400.7936 908.2674,-400.8676 905.2017,-403.4928 911.2664,-400.9415 911.2664,-400.9415"/>
</g>
<!-- Product&#45;&gt;CartItem -->
<g id="edge7" class="edge">
<title>Product&#45;&gt;CartItem</title>
<path fill="none" stroke="#000000" stroke-width=".75" d="M905.2683,-440.2524C952.4882,-467.0215 1013.2311,-501.4567 1057.4492,-526.524"/>
<polygon fill="#000000" stroke="#000000" stroke-width=".75" points="1057.5381,-526.5744 1061.4261,-531.8822 1060.1479,-528.0539 1062.7577,-529.5334 1062.7577,-529.5334 1062.7577,-529.5334 1060.1479,-528.0539 1064.0893,-527.1846 1057.5381,-526.5744 1057.5381,-526.5744"/>
</g>
<!-- Product&#45;&gt;ProductCategory -->
<g id="edge8" class="edge">
<title>Product&#45;&gt;ProductCategory</title>
<path fill="none" stroke="#000000" stroke-width=".75" d="M905.2683,-343.6551C952.9973,-307.3542 1014.5424,-260.5452 1058.8735,-226.8286"/>
<polygon fill="#000000" stroke="#000000" stroke-width=".75" points="1058.8737,-226.8285 1065.2839,-225.3453 1061.2615,-225.0124 1063.6494,-223.1962 1063.6494,-223.1962 1063.6494,-223.1962 1061.2615,-225.0124 1062.0149,-221.0472 1058.8737,-226.8285 1058.8737,-226.8285"/>
</g>
<!-- OrderItem -->
<g id="node16" class="node">
<title>OrderItem</title>
<polygon fill="#add8e6" stroke="transparent" points="5,-459 5,-481 106,-481 106,-459 5,-459"/>
<polygon fill="none" stroke="#000000" points="5,-459 5,-481 106,-481 106,-459 5,-459"/>
<text text-anchor="start" x="34.679" y="-468" font-family="Times,serif" font-weight="bold" font-size="10.00" fill="#000000">OrderItem</text>
<polygon fill="none" stroke="#000000" points="5,-437 5,-459 106,-459 106,-437 5,-437"/>
<text text-anchor="start" x="10" y="-446" font-family="Times,serif" text-decoration="underline" font-size="10.00" fill="#000000">id</text>
<text text-anchor="start" x="17.779" y="-446" font-family="Times,serif" font-size="10.00" fill="#000000">: NUMBER</text>
<polygon fill="none" stroke="#000000" points="5,-415 5,-437 106,-437 106,-415 5,-415"/>
<text text-anchor="start" x="10" y="-423" font-family="Times,serif" font-size="10.00" fill="#000000">quantity: NUMBER</text>
<polygon fill="none" stroke="#000000" points="5,-393 5,-415 106,-415 106,-393 5,-393"/>
<text text-anchor="start" x="10" y="-401" font-family="Times,serif" font-size="10.00" fill="#000000">totalTax: NUMBER</text>
<polygon fill="none" stroke="#000000" points="5,-371 5,-393 106,-393 106,-371 5,-371"/>
<text text-anchor="start" x="10" y="-379" font-family="Times,serif" font-size="10.00" fill="#000000">subtotal: NUMBER</text>
<polygon fill="none" stroke="#000000" points="5,-349 5,-371 106,-371 106,-349 5,-349"/>
<text text-anchor="start" x="10" y="-357" font-family="Times,serif" font-size="10.00" fill="#000000">total: NUMBER</text>
<polygon fill="none" stroke="#000000" points="5,-327 5,-349 106,-349 106,-327 5,-327"/>
<text text-anchor="start" x="10" y="-336" font-family="Times,serif" font-style="italic" text-decoration="underline" font-size="10.00" fill="#000000">order_id</text>
<text text-anchor="start" x="43.876" y="-336" font-family="Times,serif" font-size="10.00" fill="#000000">: NUMBER</text>
<polygon fill="none" stroke="#000000" points="5,-305 5,-327 106,-327 106,-305 5,-305"/>
<text text-anchor="start" x="9.8105" y="-314" font-family="Times,serif" font-style="italic" text-decoration="underline" font-size="10.00" fill="#000000">product_id</text>
<text text-anchor="start" x="53.1365" y="-314" font-family="Times,serif" font-size="10.00" fill="#000000">: NUMBER</text>
</g>
<!-- OrderItem&#45;&gt;Order -->
<g id="edge14" class="edge">
<title>OrderItem&#45;&gt;Order</title>
<path fill="none" stroke="#000000" stroke-width=".75" d="M109.603,-461.1462C152.2155,-514.328 211.1557,-587.8872 253.8956,-641.2279"/>
<polygon fill="#000000" stroke="#000000" stroke-width=".75" points="109.542,-461.0701 107.8973,-454.6995 107.6661,-458.729 105.7902,-456.3878 105.7902,-456.3878 105.7902,-456.3878 107.6661,-458.729 103.6832,-458.0761 109.542,-461.0701 109.542,-461.0701"/>
</g>
<!-- OrderItem&#45;&gt;Product -->
<g id="edge15" class="edge">
<title>OrderItem&#45;&gt;Product</title>
<path fill="none" stroke="#000000" stroke-width=".75" d="M111.8065,-375.6831C213.3634,-347.0658 432.5988,-295.9123 616,-326 665.3198,-334.0911 718.5373,-351.9017 759.8679,-367.904"/>
<polygon fill="#000000" stroke="#000000" stroke-width=".75" points="111.6507,-375.7272 105.1414,-374.7682 108.7647,-376.5464 105.8787,-377.3656 105.8787,-377.3656 105.8787,-377.3656 108.7647,-376.5464 106.616,-379.963 111.6507,-375.7272 111.6507,-375.7272"/>
</g>
<!-- Review -->
<g id="node18" class="node">
<title>Review</title>
<polygon fill="#add8e6" stroke="transparent" points="509,-520 509,-542 616,-542 616,-520 509,-520"/>
<polygon fill="none" stroke="#000000" points="509,-520 509,-542 616,-542 616,-520 509,-520"/>
<text text-anchor="start" x="547.2275" y="-529" font-family="Times,serif" font-weight="bold" font-size="10.00" fill="#000000">Review</text>
<polygon fill="none" stroke="#000000" points="509,-498 509,-520 616,-520 616,-498 509,-498"/>
<text text-anchor="start" x="514" y="-507" font-family="Times,serif" text-decoration="underline" font-size="10.00" fill="#000000">id</text>
<text text-anchor="start" x="521.779" y="-507" font-family="Times,serif" font-size="10.00" fill="#000000">: NUMBER</text>
<polygon fill="none" stroke="#000000" points="509,-476 509,-498 616,-498 616,-476 509,-476"/>
<text text-anchor="start" x="514" y="-484" font-family="Times,serif" font-size="10.00" fill="#000000">status: STRING</text>
<polygon fill="none" stroke="#000000" points="509,-454 509,-476 616,-476 616,-454 509,-454"/>
<text text-anchor="start" x="514" y="-462" font-family="Times,serif" font-size="10.00" fill="#000000">date: DATE</text>
<polygon fill="none" stroke="#000000" points="509,-432 509,-454 616,-454 616,-432 509,-432"/>
<text text-anchor="start" x="514" y="-440" font-family="Times,serif" font-size="10.00" fill="#000000">title: STRING</text>
<polygon fill="none" stroke="#000000" points="509,-410 509,-432 616,-432 616,-410 509,-410"/>
<text text-anchor="start" x="514" y="-418" font-family="Times,serif" font-size="10.00" fill="#000000">content: STRING</text>
<polygon fill="none" stroke="#000000" points="509,-388 509,-410 616,-410 616,-388 509,-388"/>
<text text-anchor="start" x="514" y="-396" font-family="Times,serif" font-size="10.00" fill="#000000">rating: NUMBER</text>
<polygon fill="none" stroke="#000000" points="509,-366 509,-388 616,-388 616,-366 509,-366"/>
<text text-anchor="start" x="513.757" y="-375" font-family="Times,serif" font-style="italic" text-decoration="underline" font-size="10.00" fill="#000000">customer_id</text>
<text text-anchor="start" x="563.19" y="-375" font-family="Times,serif" font-size="10.00" fill="#000000">: NUMBER</text>
<polygon fill="none" stroke="#000000" points="509,-344 509,-366 616,-366 616,-344 509,-344"/>
<text text-anchor="start" x="514" y="-353" font-family="Times,serif" font-style="italic" text-decoration="underline" font-size="10.00" fill="#000000">product_id</text>
<text text-anchor="start" x="557.326" y="-353" font-family="Times,serif" font-size="10.00" fill="#000000">: NUMBER</text>
</g>
<!-- Review&#45;&gt;Customer -->
<g id="edge16" class="edge">
<title>Review&#45;&gt;Customer</title>
<path fill="none" stroke="#000000" stroke-width=".75" d="M620.2904,-500.5362C667.671,-547.3037 733.9374,-612.7127 779.7574,-657.9398"/>
<polygon fill="#000000" stroke="#000000" stroke-width=".75" points="620.0357,-500.2848 617.6622,-494.1482 617.9006,-498.1773 615.7655,-496.0698 615.7655,-496.0698 615.7655,-496.0698 617.9006,-498.1773 613.8688,-497.9914 620.0357,-500.2848 620.0357,-500.2848"/>
</g>
<!-- Review&#45;&gt;Product -->
<g id="edge17" class="edge">
<title>Review&#45;&gt;Product</title>
<path fill="none" stroke="#000000" stroke-width=".75" d="M621.9264,-433.2523C662.6386,-426.6299 716.7199,-417.833 759.8804,-410.8124"/>
<polygon fill="#000000" stroke="#000000" stroke-width=".75" points="621.6877,-433.291 615.332,-431.5894 618.7266,-433.7727 615.7655,-434.2544 615.7655,-434.2544 615.7655,-434.2544 618.7266,-433.7727 616.199,-436.9194 621.6877,-433.291 621.6877,-433.291"/>
</g>
</g>
</svg>
