<?xml version="1.0" encoding="UTF-8" standalone="no"?>
<!DOCTYPE svg PUBLIC "-//W3C//DTD SVG 1.1//EN"
 "http://www.w3.org/Graphics/SVG/1.1/DTD/svg11.dtd">
<!-- Generated by graphviz version 2.40.1 (20161225.0304)
 -->
<!-- Title: models_diagram Pages: 1 -->
<svg width="1258pt" height="1253pt"
 viewBox="0.00 0.00 1258.00 1253.00" xmlns="http://www.w3.org/2000/svg" xmlns:xlink="http://www.w3.org/1999/xlink">
<g id="graph0" class="graph" transform="scale(1 1) rotate(0) translate(36 1217)">
<title>models_diagram</title>
<polygon fill="#ffffff" stroke="transparent" points="-36,36 -36,-1217 1222,-1217 1222,36 -36,36"/>
<!-- User -->
<g id="node1" class="node">
<title>User</title>
<polygon fill="#add8e6" stroke="transparent" points="10,-170 10,-192 101,-192 101,-170 10,-170"/>
<polygon fill="none" stroke="#000000" points="10,-170 10,-192 101,-192 101,-170 10,-170"/>
<text text-anchor="start" x="46.062" y="-179" font-family="Times,serif" font-weight="bold" font-size="10.00" fill="#000000">User</text>
<polygon fill="none" stroke="#000000" points="10,-148 10,-170 101,-170 101,-148 10,-148"/>
<text text-anchor="start" x="15" y="-157" font-family="Times,serif" text-decoration="underline" font-size="10.00" fill="#000000">id</text>
<text text-anchor="start" x="22.779" y="-157" font-family="Times,serif" font-size="10.00" fill="#000000">: NUMBER</text>
<polygon fill="none" stroke="#000000" points="10,-126 10,-148 101,-148 101,-126 10,-126"/>
<text text-anchor="start" x="15" y="-134" font-family="Times,serif" font-size="10.00" fill="#000000">username: STRING</text>
<polygon fill="none" stroke="#000000" points="10,-104 10,-126 101,-126 101,-104 10,-104"/>
<text text-anchor="start" x="15" y="-112" font-family="Times,serif" font-size="10.00" fill="#000000">email: STRING</text>
<polygon fill="none" stroke="#000000" points="10,-82 10,-104 101,-104 101,-82 10,-82"/>
<text text-anchor="start" x="15" y="-90" font-family="Times,serif" font-size="10.00" fill="#000000">password: STRING</text>
<polygon fill="none" stroke="#000000" points="10,-60 10,-82 101,-82 101,-60 10,-60"/>
<text text-anchor="start" x="14.818" y="-68" font-family="Times,serif" font-size="10.00" fill="#000000">firstName: STRING</text>
<polygon fill="none" stroke="#000000" points="10,-38 10,-60 101,-60 101,-38 10,-38"/>
<text text-anchor="start" x="15" y="-46" font-family="Times,serif" font-size="10.00" fill="#000000">lastName: STRING</text>
</g>
<!-- Attribute -->
<g id="node2" class="node">
<title>Attribute</title>
<polygon fill="#add8e6" stroke="transparent" points="797,-1159 797,-1181 907,-1181 907,-1159 797,-1159"/>
<polygon fill="none" stroke="#000000" points="797,-1159 797,-1181 907,-1181 907,-1159 797,-1159"/>
<text text-anchor="start" x="833.9485" y="-1168" font-family="Times,serif" font-weight="bold" font-size="10.00" fill="#000000">Attribute</text>
<polygon fill="none" stroke="#000000" points="797,-1137 797,-1159 907,-1159 907,-1137 797,-1137"/>
<text text-anchor="start" x="802" y="-1146" font-family="Times,serif" text-decoration="underline" font-size="10.00" fill="#000000">id</text>
<text text-anchor="start" x="809.779" y="-1146" font-family="Times,serif" font-size="10.00" fill="#000000">: NUMBER</text>
<polygon fill="none" stroke="#000000" points="797,-1115 797,-1137 907,-1137 907,-1115 797,-1115"/>
<text text-anchor="start" x="802" y="-1123" font-family="Times,serif" font-size="10.00" fill="#000000">code: STRING</text>
<polygon fill="none" stroke="#000000" points="797,-1093 797,-1115 907,-1115 907,-1093 797,-1093"/>
<text text-anchor="start" x="802" y="-1101" font-family="Times,serif" font-size="10.00" fill="#000000">isEnabled: BOOLEAN</text>
<polygon fill="none" stroke="#000000" points="797,-1071 797,-1093 907,-1093 907,-1071 797,-1071"/>
<text text-anchor="start" x="802" y="-1079" font-family="Times,serif" font-size="10.00" fill="#000000">label: STRING</text>
<polygon fill="none" stroke="#000000" points="797,-1049 797,-1071 907,-1071 907,-1049 797,-1049"/>
<text text-anchor="start" x="802" y="-1057" font-family="Times,serif" font-size="10.00" fill="#000000">type: STRING</text>
<polygon fill="none" stroke="#000000" points="797,-1027 797,-1049 907,-1049 907,-1027 797,-1027"/>
<text text-anchor="start" x="802" y="-1035" font-family="Times,serif" font-size="10.00" fill="#000000">attributeOptions: JSON</text>
<polygon fill="none" stroke="#000000" points="797,-1005 797,-1027 907,-1027 907,-1005 797,-1005"/>
<text text-anchor="start" x="802" y="-1013" font-family="Times,serif" font-size="10.00" fill="#000000">isFilter: BOOLEAN</text>
<polygon fill="none" stroke="#000000" points="797,-983 797,-1005 907,-1005 907,-983 797,-983"/>
<text text-anchor="start" x="801.873" y="-991" font-family="Times,serif" font-size="10.00" fill="#000000">attributeGroup: STRING</text>
</g>
<!-- AttributeSetAttribute -->
<g id="node4" class="node">
<title>AttributeSetAttribute</title>
<polygon fill="#add8e6" stroke="transparent" points="1058.5,-947 1058.5,-969 1178.5,-969 1178.5,-947 1058.5,-947"/>
<polygon fill="none" stroke="#000000" points="1058.5,-947 1058.5,-969 1178.5,-969 1178.5,-947 1058.5,-947"/>
<text text-anchor="start" x="1076.0085" y="-956" font-family="Times,serif" font-weight="bold" font-size="10.00" fill="#000000">AttributeSetAttribute</text>
<polygon fill="none" stroke="#000000" points="1058.5,-925 1058.5,-947 1178.5,-947 1178.5,-925 1058.5,-925"/>
<text text-anchor="start" x="1063.5" y="-934" font-family="Times,serif" text-decoration="underline" font-size="10.00" fill="#000000">id</text>
<text text-anchor="start" x="1071.279" y="-934" font-family="Times,serif" font-size="10.00" fill="#000000">: NUMBER</text>
<polygon fill="none" stroke="#000000" points="1058.5,-903 1058.5,-925 1178.5,-925 1178.5,-903 1058.5,-903"/>
<text text-anchor="start" x="1063.369" y="-912" font-family="Times,serif" font-style="italic" text-decoration="underline" font-size="10.00" fill="#000000">attribute_set_id</text>
<text text-anchor="start" x="1125.578" y="-912" font-family="Times,serif" font-size="10.00" fill="#000000">: NUMBER</text>
<polygon fill="none" stroke="#000000" points="1058.5,-881 1058.5,-903 1178.5,-903 1178.5,-881 1058.5,-881"/>
<text text-anchor="start" x="1063.5" y="-890" font-family="Times,serif" font-style="italic" text-decoration="underline" font-size="10.00" fill="#000000">attribute_id</text>
<text text-anchor="start" x="1109.602" y="-890" font-family="Times,serif" font-size="10.00" fill="#000000">: NUMBER</text>
</g>
<!-- Attribute&#45;&gt;AttributeSetAttribute -->
<g id="edge1" class="edge">
<title>Attribute&#45;&gt;AttributeSetAttribute</title>
<path fill="none" stroke="#000000" stroke-width=".75" d="M907.219,-1049.4695C949.5588,-1024.5264 1008.1274,-990.0225 1052.8632,-963.6679"/>
<polygon fill="#000000" stroke="#000000" stroke-width=".75" points="1053.0785,-963.541 1059.6186,-962.8218 1055.6633,-962.0182 1058.2481,-960.4955 1058.2481,-960.4955 1058.2481,-960.4955 1055.6633,-962.0182 1056.8776,-958.1691 1053.0785,-963.541 1053.0785,-963.541"/>
</g>
<!-- AttributeSet -->
<g id="node3" class="node">
<title>AttributeSet</title>
<polygon fill="#add8e6" stroke="transparent" points="801,-801 801,-823 903,-823 903,-801 801,-801"/>
<polygon fill="none" stroke="#000000" points="801,-801 801,-823 903,-823 903,-801 801,-801"/>
<text text-anchor="start" x="827.56" y="-810" font-family="Times,serif" font-weight="bold" font-size="10.00" fill="#000000">AttributeSet</text>
<polygon fill="none" stroke="#000000" points="801,-779 801,-801 903,-801 903,-779 801,-779"/>
<text text-anchor="start" x="806" y="-788" font-family="Times,serif" text-decoration="underline" font-size="10.00" fill="#000000">id</text>
<text text-anchor="start" x="813.779" y="-788" font-family="Times,serif" font-size="10.00" fill="#000000">: NUMBER</text>
<polygon fill="none" stroke="#000000" points="801,-757 801,-779 903,-779 903,-757 801,-757"/>
<text text-anchor="start" x="806" y="-765" font-family="Times,serif" font-size="10.00" fill="#000000">code: STRING</text>
<polygon fill="none" stroke="#000000" points="801,-735 801,-757 903,-757 903,-735 801,-735"/>
<text text-anchor="start" x="805.762" y="-743" font-family="Times,serif" font-size="10.00" fill="#000000">isEnabled: BOOLEAN</text>
<polygon fill="none" stroke="#000000" points="801,-713 801,-735 903,-735 903,-713 801,-713"/>
<text text-anchor="start" x="806" y="-721" font-family="Times,serif" font-size="10.00" fill="#000000">name: STRING</text>
</g>
<!-- AttributeSet&#45;&gt;AttributeSetAttribute -->
<g id="edge2" class="edge">
<title>AttributeSet&#45;&gt;AttributeSetAttribute</title>
<path fill="none" stroke="#000000" stroke-width=".75" d="M903.0686,-798.0854C945.7087,-823.2055 1006.7691,-859.1773 1053.0025,-886.4142"/>
<polygon fill="#000000" stroke="#000000" stroke-width=".75" points="1053.1104,-886.4777 1056.9095,-891.8496 1055.6952,-888.0005 1058.28,-889.5233 1058.28,-889.5233 1058.28,-889.5233 1055.6952,-888.0005 1059.6505,-887.197 1053.1104,-886.4777 1053.1104,-886.4777"/>
</g>
<!-- Block -->
<g id="node5" class="node">
<title>Block</title>
<polygon fill="#add8e6" stroke="transparent" points="4,-839 4,-861 106,-861 106,-839 4,-839"/>
<polygon fill="none" stroke="#000000" points="4,-839 4,-861 106,-861 106,-839 4,-839"/>
<text text-anchor="start" x="43.0565" y="-848" font-family="Times,serif" font-weight="bold" font-size="10.00" fill="#000000">Block</text>
<polygon fill="none" stroke="#000000" points="4,-817 4,-839 106,-839 106,-817 4,-817"/>
<text text-anchor="start" x="9" y="-826" font-family="Times,serif" text-decoration="underline" font-size="10.00" fill="#000000">id</text>
<text text-anchor="start" x="16.779" y="-826" font-family="Times,serif" font-size="10.00" fill="#000000">: NUMBER</text>
<polygon fill="none" stroke="#000000" points="4,-795 4,-817 106,-817 106,-795 4,-795"/>
<text text-anchor="start" x="9" y="-803" font-family="Times,serif" font-size="10.00" fill="#000000">code: STRING</text>
<polygon fill="none" stroke="#000000" points="4,-773 4,-795 106,-795 106,-773 4,-773"/>
<text text-anchor="start" x="8.762" y="-781" font-family="Times,serif" font-size="10.00" fill="#000000">isEnabled: BOOLEAN</text>
<polygon fill="none" stroke="#000000" points="4,-751 4,-773 106,-773 106,-751 4,-751"/>
<text text-anchor="start" x="9" y="-759" font-family="Times,serif" font-size="10.00" fill="#000000">content: TEXT</text>
</g>
<!-- Category -->
<g id="node6" class="node">
<title>Category</title>
<polygon fill="#add8e6" stroke="transparent" points="528.5,-1092 528.5,-1114 633.5,-1114 633.5,-1092 528.5,-1092"/>
<polygon fill="none" stroke="#000000" points="528.5,-1092 528.5,-1114 633.5,-1114 633.5,-1092 528.5,-1092"/>
<text text-anchor="start" x="562.6725" y="-1101" font-family="Times,serif" font-weight="bold" font-size="10.00" fill="#000000">Category</text>
<polygon fill="none" stroke="#000000" points="528.5,-1070 528.5,-1092 633.5,-1092 633.5,-1070 528.5,-1070"/>
<text text-anchor="start" x="533.5" y="-1079" font-family="Times,serif" text-decoration="underline" font-size="10.00" fill="#000000">id</text>
<text text-anchor="start" x="541.279" y="-1079" font-family="Times,serif" font-size="10.00" fill="#000000">: NUMBER</text>
<polygon fill="none" stroke="#000000" points="528.5,-1048 528.5,-1070 633.5,-1070 633.5,-1048 528.5,-1048"/>
<text text-anchor="start" x="533.5" y="-1056" font-family="Times,serif" font-size="10.00" fill="#000000">urlKey: STRING</text>
<polygon fill="none" stroke="#000000" points="528.5,-1026 528.5,-1048 633.5,-1048 633.5,-1026 528.5,-1026"/>
<text text-anchor="start" x="533.5" y="-1034" font-family="Times,serif" font-size="10.00" fill="#000000">isEnabled: BOOLEAN</text>
<polygon fill="none" stroke="#000000" points="528.5,-1004 528.5,-1026 633.5,-1026 633.5,-1004 528.5,-1004"/>
<text text-anchor="start" x="533.5" y="-1012" font-family="Times,serif" font-size="10.00" fill="#000000">name: STRING</text>
<polygon fill="none" stroke="#000000" points="528.5,-982 528.5,-1004 633.5,-1004 633.5,-982 528.5,-982"/>
<text text-anchor="start" x="533.5" y="-990" font-family="Times,serif" font-size="10.00" fill="#000000">isInMenu: BOOLEAN</text>
<polygon fill="none" stroke="#000000" points="528.5,-960 528.5,-982 633.5,-982 633.5,-960 528.5,-960"/>
<text text-anchor="start" x="533.5" y="-968" font-family="Times,serif" font-size="10.00" fill="#000000">content: TEXT</text>
<polygon fill="none" stroke="#000000" points="528.5,-938 528.5,-960 633.5,-960 633.5,-938 528.5,-938"/>
<text text-anchor="start" x="533.3715" y="-947" font-family="Times,serif" font-style="italic" text-decoration="underline" font-size="10.00" fill="#000000">category_id</text>
<text text-anchor="start" x="580.5755" y="-947" font-family="Times,serif" font-size="10.00" fill="#000000">: NUMBER</text>
</g>
<!-- ProductCategory -->
<g id="node18" class="node">
<title>ProductCategory</title>
<polygon fill="#add8e6" stroke="transparent" points="800,-925 800,-947 905,-947 905,-925 800,-925"/>
<polygon fill="none" stroke="#000000" points="800,-925 800,-947 905,-947 905,-925 800,-925"/>
<text text-anchor="start" x="818.6195" y="-934" font-family="Times,serif" font-weight="bold" font-size="10.00" fill="#000000">ProductCategory</text>
<polygon fill="none" stroke="#000000" points="800,-903 800,-925 905,-925 905,-903 800,-903"/>
<text text-anchor="start" x="805" y="-912" font-family="Times,serif" text-decoration="underline" font-size="10.00" fill="#000000">id</text>
<text text-anchor="start" x="812.779" y="-912" font-family="Times,serif" font-size="10.00" fill="#000000">: NUMBER</text>
<polygon fill="none" stroke="#000000" points="800,-881 800,-903 905,-903 905,-881 800,-881"/>
<text text-anchor="start" x="805" y="-890" font-family="Times,serif" font-style="italic" text-decoration="underline" font-size="10.00" fill="#000000">product_id</text>
<text text-anchor="start" x="848.326" y="-890" font-family="Times,serif" font-size="10.00" fill="#000000">: NUMBER</text>
<polygon fill="none" stroke="#000000" points="800,-859 800,-881 905,-881 905,-859 800,-859"/>
<text text-anchor="start" x="804.8715" y="-868" font-family="Times,serif" font-style="italic" text-decoration="underline" font-size="10.00" fill="#000000">category_id</text>
<text text-anchor="start" x="852.0755" y="-868" font-family="Times,serif" font-size="10.00" fill="#000000">: NUMBER</text>
</g>
<!-- Category&#45;&gt;ProductCategory -->
<g id="edge3" class="edge">
<title>Category&#45;&gt;ProductCategory</title>
<path fill="none" stroke="#000000" stroke-width=".75" d="M638.8902,-999.547C684.733,-978.7784 748.2433,-950.0058 793.9885,-929.2815"/>
<polygon fill="#000000" stroke="#000000" stroke-width=".75" points="638.6352,-999.6625 632.0556,-999.6791 635.9025,-1000.9005 633.1699,-1002.1385 633.1699,-1002.1385 633.1699,-1002.1385 635.9025,-1000.9005 634.2841,-1004.5979 638.6352,-999.6625 638.6352,-999.6625"/>
<polygon fill="#000000" stroke="#000000" stroke-width=".75" points="794.0114,-929.2711 800.591,-929.2545 796.7441,-928.0331 799.4767,-926.7951 799.4767,-926.7951 799.4767,-926.7951 796.7441,-928.0331 798.3625,-924.3357 794.0114,-929.2711 794.0114,-929.2711"/>
</g>
<!-- Customer -->
<g id="node7" class="node">
<title>Customer</title>
<polygon fill="#add8e6" stroke="transparent" points="800,-385 800,-407 905,-407 905,-385 800,-385"/>
<polygon fill="none" stroke="#000000" points="800,-385 800,-407 905,-407 905,-385 800,-385"/>
<text text-anchor="start" x="833.058" y="-394" font-family="Times,serif" font-weight="bold" font-size="10.00" fill="#000000">Customer</text>
<polygon fill="none" stroke="#000000" points="800,-363 800,-385 905,-385 905,-363 800,-363"/>
<text text-anchor="start" x="805" y="-372" font-family="Times,serif" text-decoration="underline" font-size="10.00" fill="#000000">id</text>
<text text-anchor="start" x="812.779" y="-372" font-family="Times,serif" font-size="10.00" fill="#000000">: NUMBER</text>
<polygon fill="none" stroke="#000000" points="800,-341 800,-363 905,-363 905,-341 800,-341"/>
<text text-anchor="start" x="805" y="-349" font-family="Times,serif" font-size="10.00" fill="#000000">email: STRING</text>
<polygon fill="none" stroke="#000000" points="800,-319 800,-341 905,-341 905,-319 800,-319"/>
<text text-anchor="start" x="805" y="-327" font-family="Times,serif" font-size="10.00" fill="#000000">password: STRING</text>
<polygon fill="none" stroke="#000000" points="800,-297 800,-319 905,-319 905,-297 800,-297"/>
<text text-anchor="start" x="805" y="-305" font-family="Times,serif" font-size="10.00" fill="#000000">firstName: STRING</text>
<polygon fill="none" stroke="#000000" points="800,-275 800,-297 905,-297 905,-275 800,-275"/>
<text text-anchor="start" x="805" y="-283" font-family="Times,serif" font-size="10.00" fill="#000000">lastName: STRING</text>
<polygon fill="none" stroke="#000000" points="800,-253 800,-275 905,-275 905,-253 800,-253"/>
<text text-anchor="start" x="804.592" y="-261" font-family="Times,serif" font-size="10.00" fill="#000000">isSignedIn: BOOLEAN</text>
<polygon fill="none" stroke="#000000" points="800,-231 800,-253 905,-253 905,-231 800,-231"/>
<text text-anchor="start" x="805" y="-239" font-family="Times,serif" font-size="10.00" fill="#000000">isGuest: BOOLEAN</text>
</g>
<!-- CustomerCustomerGroup -->
<g id="node11" class="node">
<title>CustomerCustomerGroup</title>
<polygon fill="#add8e6" stroke="transparent" points="1051.5,-498 1051.5,-520 1186.5,-520 1186.5,-498 1051.5,-498"/>
<polygon fill="none" stroke="#000000" points="1051.5,-498 1051.5,-520 1186.5,-520 1186.5,-498 1051.5,-498"/>
<text text-anchor="start" x="1067.342" y="-507" font-family="Times,serif" font-weight="bold" font-size="10.00" fill="#000000">CustomerCustomerGroup</text>
<polygon fill="none" stroke="#000000" points="1051.5,-476 1051.5,-498 1186.5,-498 1186.5,-476 1051.5,-476"/>
<text text-anchor="start" x="1056.5" y="-485" font-family="Times,serif" text-decoration="underline" font-size="10.00" fill="#000000">id</text>
<text text-anchor="start" x="1064.279" y="-485" font-family="Times,serif" font-size="10.00" fill="#000000">: NUMBER</text>
<polygon fill="none" stroke="#000000" points="1051.5,-454 1051.5,-476 1186.5,-476 1186.5,-454 1051.5,-454"/>
<text text-anchor="start" x="1056.5" y="-463" font-family="Times,serif" font-style="italic" text-decoration="underline" font-size="10.00" fill="#000000">customer_id</text>
<text text-anchor="start" x="1105.933" y="-463" font-family="Times,serif" font-size="10.00" fill="#000000">: NUMBER</text>
<polygon fill="none" stroke="#000000" points="1051.5,-432 1051.5,-454 1186.5,-454 1186.5,-432 1051.5,-432"/>
<text text-anchor="start" x="1056.0925" y="-441" font-family="Times,serif" font-style="italic" text-decoration="underline" font-size="10.00" fill="#000000">customer_group_id</text>
<text text-anchor="start" x="1133.8545" y="-441" font-family="Times,serif" font-size="10.00" fill="#000000">: NUMBER</text>
</g>
<!-- Customer&#45;&gt;CustomerCustomerGroup -->
<g id="edge4" class="edge">
<title>Customer&#45;&gt;CustomerCustomerGroup</title>
<path fill="none" stroke="#000000" stroke-width=".75" d="M904.6518,-350.0181C944.8834,-373.7193 1000.8164,-406.6704 1045.3887,-432.9288"/>
<polygon fill="#000000" stroke="#000000" stroke-width=".75" points="1045.5966,-433.0512 1049.3957,-438.4231 1048.1814,-434.574 1050.7662,-436.0968 1050.7662,-436.0968 1050.7662,-436.0968 1048.1814,-434.574 1052.1367,-433.7704 1045.5966,-433.0512 1045.5966,-433.0512"/>
</g>
<!-- Address -->
<g id="node8" class="node">
<title>Address</title>
<polygon fill="#add8e6" stroke="transparent" points="526.5,-242 526.5,-264 634.5,-264 634.5,-242 526.5,-242"/>
<polygon fill="none" stroke="#000000" points="526.5,-242 526.5,-264 634.5,-264 634.5,-242 526.5,-242"/>
<text text-anchor="start" x="564.1175" y="-251" font-family="Times,serif" font-weight="bold" font-size="10.00" fill="#000000">Address</text>
<polygon fill="none" stroke="#000000" points="526.5,-220 526.5,-242 634.5,-242 634.5,-220 526.5,-220"/>
<text text-anchor="start" x="531.5" y="-229" font-family="Times,serif" text-decoration="underline" font-size="10.00" fill="#000000">id</text>
<text text-anchor="start" x="539.279" y="-229" font-family="Times,serif" font-size="10.00" fill="#000000">: NUMBER</text>
<polygon fill="none" stroke="#000000" points="526.5,-198 526.5,-220 634.5,-220 634.5,-198 526.5,-198"/>
<text text-anchor="start" x="531.5" y="-206" font-family="Times,serif" font-size="10.00" fill="#000000">firstName: STRING</text>
<polygon fill="none" stroke="#000000" points="526.5,-176 526.5,-198 634.5,-198 634.5,-176 526.5,-176"/>
<text text-anchor="start" x="531.5" y="-184" font-family="Times,serif" font-size="10.00" fill="#000000">lastName: STRING</text>
<polygon fill="none" stroke="#000000" points="526.5,-154 526.5,-176 634.5,-176 634.5,-154 526.5,-154"/>
<text text-anchor="start" x="531.206" y="-162" font-family="Times,serif" font-size="10.00" fill="#000000">phoneNumber: STRING</text>
<polygon fill="none" stroke="#000000" points="526.5,-132 526.5,-154 634.5,-154 634.5,-132 526.5,-132"/>
<text text-anchor="start" x="531.5" y="-140" font-family="Times,serif" font-size="10.00" fill="#000000">country: STRING</text>
<polygon fill="none" stroke="#000000" points="526.5,-110 526.5,-132 634.5,-132 634.5,-110 526.5,-110"/>
<text text-anchor="start" x="531.5" y="-118" font-family="Times,serif" font-size="10.00" fill="#000000">city: STRING</text>
<polygon fill="none" stroke="#000000" points="526.5,-88 526.5,-110 634.5,-110 634.5,-88 526.5,-88"/>
<text text-anchor="start" x="531.5" y="-96" font-family="Times,serif" font-size="10.00" fill="#000000">province: STRING</text>
<polygon fill="none" stroke="#000000" points="526.5,-66 526.5,-88 634.5,-88 634.5,-66 526.5,-66"/>
<text text-anchor="start" x="531.5" y="-74" font-family="Times,serif" font-size="10.00" fill="#000000">street1: STRING</text>
<polygon fill="none" stroke="#000000" points="526.5,-44 526.5,-66 634.5,-66 634.5,-44 526.5,-44"/>
<text text-anchor="start" x="531.5" y="-52" font-family="Times,serif" font-size="10.00" fill="#000000">street2: STRING</text>
<polygon fill="none" stroke="#000000" points="526.5,-22 526.5,-44 634.5,-44 634.5,-22 526.5,-22"/>
<text text-anchor="start" x="531.5" y="-30" font-family="Times,serif" font-size="10.00" fill="#000000">postalCode: STRING</text>
<polygon fill="none" stroke="#000000" points="526.5,0 526.5,-22 634.5,-22 634.5,0 526.5,0"/>
<text text-anchor="start" x="531.5" y="-9" font-family="Times,serif" font-style="italic" text-decoration="underline" font-size="10.00" fill="#000000">customer_id</text>
<text text-anchor="start" x="580.933" y="-9" font-family="Times,serif" font-size="10.00" fill="#000000">: NUMBER</text>
</g>
<!-- Address&#45;&gt;Customer -->
<g id="edge9" class="edge">
<title>Address&#45;&gt;Customer</title>
<path fill="none" stroke="#000000" stroke-width=".75" d="M639.9102,-172.9197C687.4462,-205.6609 753.487,-251.1476 799.1904,-282.6265"/>
<polygon fill="#000000" stroke="#000000" stroke-width=".75" points="639.7309,-172.7963 636.3211,-167.1692 637.2602,-171.0945 634.7895,-169.3928 634.7895,-169.3928 634.7895,-169.3928 637.2602,-171.0945 633.258,-171.6164 639.7309,-172.7963 639.7309,-172.7963"/>
</g>
<!-- Cart -->
<g id="node9" class="node">
<title>Cart</title>
<polygon fill="#add8e6" stroke="transparent" points="527.5,-492 527.5,-514 634.5,-514 634.5,-492 527.5,-492"/>
<polygon fill="none" stroke="#000000" points="527.5,-492 527.5,-514 634.5,-514 634.5,-492 527.5,-492"/>
<text text-anchor="start" x="572.392" y="-501" font-family="Times,serif" font-weight="bold" font-size="10.00" fill="#000000">Cart</text>
<polygon fill="none" stroke="#000000" points="527.5,-470 527.5,-492 634.5,-492 634.5,-470 527.5,-470"/>
<text text-anchor="start" x="532.5" y="-479" font-family="Times,serif" text-decoration="underline" font-size="10.00" fill="#000000">id</text>
<text text-anchor="start" x="540.279" y="-479" font-family="Times,serif" font-size="10.00" fill="#000000">: NUMBER</text>
<polygon fill="none" stroke="#000000" points="527.5,-448 527.5,-470 634.5,-470 634.5,-448 527.5,-448"/>
<text text-anchor="start" x="532.257" y="-457" font-family="Times,serif" font-style="italic" text-decoration="underline" font-size="10.00" fill="#000000">customer_id</text>
<text text-anchor="start" x="581.69" y="-457" font-family="Times,serif" font-size="10.00" fill="#000000">: NUMBER</text>
</g>
<!-- Cart&#45;&gt;Customer -->
<g id="edge10" class="edge">
<title>Cart&#45;&gt;Customer</title>
<path fill="none" stroke="#000000" stroke-width=".75" d="M634.1397,-448.994C682.0464,-420.4088 751.807,-378.7837 799.3956,-350.3883"/>
</g>
<!-- CartItem -->
<g id="node16" class="node">
<title>CartItem</title>
<polygon fill="#add8e6" stroke="transparent" points="802,-531 802,-553 903,-553 903,-531 802,-531"/>
<polygon fill="none" stroke="#000000" points="802,-531 802,-553 903,-553 903,-531 802,-531"/>
<text text-anchor="start" x="834.729" y="-540" font-family="Times,serif" font-weight="bold" font-size="10.00" fill="#000000">CartItem</text>
<polygon fill="none" stroke="#000000" points="802,-509 802,-531 903,-531 903,-509 802,-509"/>
<text text-anchor="start" x="807" y="-518" font-family="Times,serif" text-decoration="underline" font-size="10.00" fill="#000000">id</text>
<text text-anchor="start" x="814.779" y="-518" font-family="Times,serif" font-size="10.00" fill="#000000">: NUMBER</text>
<polygon fill="none" stroke="#000000" points="802,-487 802,-509 903,-509 903,-487 802,-487"/>
<text text-anchor="start" x="807" y="-495" font-family="Times,serif" font-size="10.00" fill="#000000">quantity: NUMBER</text>
<polygon fill="none" stroke="#000000" points="802,-465 802,-487 903,-487 903,-465 802,-465"/>
<text text-anchor="start" x="807" y="-474" font-family="Times,serif" font-style="italic" text-decoration="underline" font-size="10.00" fill="#000000">cart_id</text>
<text text-anchor="start" x="834.765" y="-474" font-family="Times,serif" font-size="10.00" fill="#000000">: NUMBER</text>
<polygon fill="none" stroke="#000000" points="802,-443 802,-465 903,-465 903,-443 802,-443"/>
<text text-anchor="start" x="806.8105" y="-452" font-family="Times,serif" font-style="italic" text-decoration="underline" font-size="10.00" fill="#000000">product_id</text>
<text text-anchor="start" x="850.1365" y="-452" font-family="Times,serif" font-size="10.00" fill="#000000">: NUMBER</text>
</g>
<!-- Cart&#45;&gt;CartItem -->
<g id="edge5" class="edge">
<title>Cart&#45;&gt;CartItem</title>
<path fill="none" stroke="#000000" stroke-width=".75" d="M634.1397,-484.3587C680.5795,-487.2665 747.5554,-491.4602 794.963,-494.4286"/>
<polygon fill="#000000" stroke="#000000" stroke-width=".75" points="795.2383,-494.4458 801.0578,-497.5155 798.2324,-494.6333 801.2266,-494.8208 801.2266,-494.8208 801.2266,-494.8208 798.2324,-494.6333 801.3953,-492.1261 795.2383,-494.4458 795.2383,-494.4458"/>
</g>
<!-- CustomerGroup -->
<g id="node10" class="node">
<title>CustomerGroup</title>
<polygon fill="#add8e6" stroke="transparent" points="815,-655 815,-677 889,-677 889,-655 815,-655"/>
<polygon fill="none" stroke="#000000" points="815,-655 815,-677 889,-677 889,-655 815,-655"/>
<text text-anchor="start" x="819.784" y="-664" font-family="Times,serif" font-weight="bold" font-size="10.00" fill="#000000">CustomerGroup</text>
<polygon fill="none" stroke="#000000" points="815,-633 815,-655 889,-655 889,-633 815,-633"/>
<text text-anchor="start" x="820" y="-642" font-family="Times,serif" text-decoration="underline" font-size="10.00" fill="#000000">id</text>
<text text-anchor="start" x="827.779" y="-642" font-family="Times,serif" font-size="10.00" fill="#000000">: NUMBER</text>
<polygon fill="none" stroke="#000000" points="815,-611 815,-633 889,-633 889,-611 815,-611"/>
<text text-anchor="start" x="820" y="-619" font-family="Times,serif" font-size="10.00" fill="#000000">code: STRING</text>
<polygon fill="none" stroke="#000000" points="815,-589 815,-611 889,-611 889,-589 815,-589"/>
<text text-anchor="start" x="820" y="-597" font-family="Times,serif" font-size="10.00" fill="#000000">name: STRING</text>
</g>
<!-- CustomerGroup&#45;&gt;CustomerCustomerGroup -->
<g id="edge6" class="edge">
<title>CustomerGroup&#45;&gt;CustomerCustomerGroup</title>
<path fill="none" stroke="#000000" stroke-width=".75" d="M889.0557,-611.1698C929.4313,-587.3838 995.0373,-548.7341 1045.776,-518.843"/>
<polygon fill="#000000" stroke="#000000" stroke-width=".75" points="1045.7798,-518.8409 1052.3199,-518.1216 1048.3646,-517.3181 1050.9494,-515.7953 1050.9494,-515.7953 1050.9494,-515.7953 1048.3646,-517.3181 1049.5789,-513.469 1045.7798,-518.8409 1045.7798,-518.8409"/>
</g>
<!-- Order -->
<g id="node12" class="node">
<title>Order</title>
<polygon fill="#add8e6" stroke="transparent" points="254,-415 254,-437 364,-437 364,-415 254,-415"/>
<polygon fill="none" stroke="#000000" points="254,-415 254,-437 364,-437 364,-415 254,-415"/>
<text text-anchor="start" x="297.342" y="-424" font-family="Times,serif" font-weight="bold" font-size="10.00" fill="#000000">Order</text>
<polygon fill="none" stroke="#000000" points="254,-393 254,-415 364,-415 364,-393 254,-393"/>
<text text-anchor="start" x="259" y="-402" font-family="Times,serif" text-decoration="underline" font-size="10.00" fill="#000000">id</text>
<text text-anchor="start" x="266.779" y="-402" font-family="Times,serif" font-size="10.00" fill="#000000">: NUMBER</text>
<polygon fill="none" stroke="#000000" points="254,-371 254,-393 364,-393 364,-371 254,-371"/>
<text text-anchor="start" x="259" y="-379" font-family="Times,serif" font-size="10.00" fill="#000000">reference: STRING</text>
<polygon fill="none" stroke="#000000" points="254,-349 254,-371 364,-371 364,-349 254,-349"/>
<text text-anchor="start" x="259" y="-357" font-family="Times,serif" font-size="10.00" fill="#000000">date: DATE</text>
<polygon fill="none" stroke="#000000" points="254,-327 254,-349 364,-349 364,-327 254,-327"/>
<text text-anchor="start" x="259" y="-335" font-family="Times,serif" font-size="10.00" fill="#000000">status: STRING</text>
<polygon fill="none" stroke="#000000" points="254,-305 254,-327 364,-327 364,-305 254,-305"/>
<text text-anchor="start" x="258.5935" y="-313" font-family="Times,serif" font-size="10.00" fill="#000000">totalDelivery: NUMBER</text>
<polygon fill="none" stroke="#000000" points="254,-283 254,-305 364,-305 364,-283 254,-283"/>
<text text-anchor="start" x="259" y="-291" font-family="Times,serif" font-size="10.00" fill="#000000">totalTax: NUMBER</text>
<polygon fill="none" stroke="#000000" points="254,-261 254,-283 364,-283 364,-261 254,-261"/>
<text text-anchor="start" x="259" y="-269" font-family="Times,serif" font-size="10.00" fill="#000000">subtotal: NUMBER</text>
<polygon fill="none" stroke="#000000" points="254,-239 254,-261 364,-261 364,-239 254,-239"/>
<text text-anchor="start" x="259" y="-247" font-family="Times,serif" font-size="10.00" fill="#000000">total: NUMBER</text>
<polygon fill="none" stroke="#000000" points="254,-217 254,-239 364,-239 364,-217 254,-217"/>
<text text-anchor="start" x="259" y="-226" font-family="Times,serif" font-style="italic" text-decoration="underline" font-size="10.00" fill="#000000">customer_id</text>
<text text-anchor="start" x="308.433" y="-226" font-family="Times,serif" font-size="10.00" fill="#000000">: NUMBER</text>
<polygon fill="none" stroke="#000000" points="254,-195 254,-217 364,-217 364,-195 254,-195"/>
<text text-anchor="start" x="259" y="-204" font-family="Times,serif" font-style="italic" text-decoration="underline" font-size="10.00" fill="#000000">address_id</text>
<text text-anchor="start" x="301.764" y="-204" font-family="Times,serif" font-size="10.00" fill="#000000">: NUMBER</text>
</g>
<!-- Order&#45;&gt;Customer -->
<g id="edge12" class="edge">
<title>Order&#45;&gt;Customer</title>
<path fill="none" stroke="#000000" stroke-width=".75" d="M370.3376,-316.3389C477.7635,-316.9324 698.1243,-318.1499 799.2076,-318.7083"/>
<polygon fill="#000000" stroke="#000000" stroke-width=".75" points="370.0539,-316.3374 364.0689,-313.6042 367.0539,-316.3208 364.054,-316.3042 364.054,-316.3042 364.054,-316.3042 367.0539,-316.3208 364.039,-319.0041 370.0539,-316.3374 370.0539,-316.3374"/>
</g>
<!-- Order&#45;&gt;Address -->
<g id="edge11" class="edge">
<title>Order&#45;&gt;Address</title>
<path fill="none" stroke="#000000" stroke-width=".75" d="M369.3306,-275.113C416.291,-243.2871 480.8908,-199.5068 526.2353,-168.7761"/>
<polygon fill="#000000" stroke="#000000" stroke-width=".75" points="369.2362,-275.1769 362.7546,-276.308 366.7527,-276.86 364.2693,-278.5431 364.2693,-278.5431 364.2693,-278.5431 366.7527,-276.86 365.7841,-280.7782 369.2362,-275.1769 369.2362,-275.1769"/>
</g>
<!-- Invoice -->
<g id="node13" class="node">
<title>Invoice</title>
<polygon fill="#add8e6" stroke="transparent" points="0,-382 0,-404 110,-404 110,-382 0,-382"/>
<polygon fill="none" stroke="#000000" points="0,-382 0,-404 110,-404 110,-382 0,-382"/>
<text text-anchor="start" x="40.007" y="-391" font-family="Times,serif" font-weight="bold" font-size="10.00" fill="#000000">Invoice</text>
<polygon fill="none" stroke="#000000" points="0,-360 0,-382 110,-382 110,-360 0,-360"/>
<text text-anchor="start" x="5" y="-369" font-family="Times,serif" text-decoration="underline" font-size="10.00" fill="#000000">id</text>
<text text-anchor="start" x="12.779" y="-369" font-family="Times,serif" font-size="10.00" fill="#000000">: NUMBER</text>
<polygon fill="none" stroke="#000000" points="0,-338 0,-360 110,-360 110,-338 0,-338"/>
<text text-anchor="start" x="5" y="-346" font-family="Times,serif" font-size="10.00" fill="#000000">date: DATE</text>
<polygon fill="none" stroke="#000000" points="0,-316 0,-338 110,-338 110,-316 0,-316"/>
<text text-anchor="start" x="4.5935" y="-324" font-family="Times,serif" font-size="10.00" fill="#000000">totalDelivery: NUMBER</text>
<polygon fill="none" stroke="#000000" points="0,-294 0,-316 110,-316 110,-294 0,-294"/>
<text text-anchor="start" x="5" y="-302" font-family="Times,serif" font-size="10.00" fill="#000000">totalTax: NUMBER</text>
<polygon fill="none" stroke="#000000" points="0,-272 0,-294 110,-294 110,-272 0,-272"/>
<text text-anchor="start" x="5" y="-280" font-family="Times,serif" font-size="10.00" fill="#000000">subtotal: NUMBER</text>
<polygon fill="none" stroke="#000000" points="0,-250 0,-272 110,-272 110,-250 0,-250"/>
<text text-anchor="start" x="5" y="-258" font-family="Times,serif" font-size="10.00" fill="#000000">total: NUMBER</text>
<polygon fill="none" stroke="#000000" points="0,-228 0,-250 110,-250 110,-228 0,-228"/>
<text text-anchor="start" x="5" y="-237" font-family="Times,serif" font-style="italic" text-decoration="underline" font-size="10.00" fill="#000000">order_id</text>
<text text-anchor="start" x="38.876" y="-237" font-family="Times,serif" font-size="10.00" fill="#000000">: NUMBER</text>
</g>
<!-- Invoice&#45;&gt;Order -->
<g id="edge13" class="edge">
<title>Invoice&#45;&gt;Order</title>
<path fill="none" stroke="#000000" stroke-width=".75" d="M110.1142,-316C152.7185,-316 211.4162,-316 253.9933,-316"/>
</g>
<!-- Page -->
<g id="node14" class="node">
<title>Page</title>
<polygon fill="#add8e6" stroke="transparent" points="4,-1007 4,-1029 106,-1029 106,-1007 4,-1007"/>
<polygon fill="none" stroke="#000000" points="4,-1007 4,-1029 106,-1029 106,-1007 4,-1007"/>
<text text-anchor="start" x="45.2815" y="-1016" font-family="Times,serif" font-weight="bold" font-size="10.00" fill="#000000">Page</text>
<polygon fill="none" stroke="#000000" points="4,-985 4,-1007 106,-1007 106,-985 4,-985"/>
<text text-anchor="start" x="9" y="-994" font-family="Times,serif" text-decoration="underline" font-size="10.00" fill="#000000">id</text>
<text text-anchor="start" x="16.779" y="-994" font-family="Times,serif" font-size="10.00" fill="#000000">: NUMBER</text>
<polygon fill="none" stroke="#000000" points="4,-963 4,-985 106,-985 106,-963 4,-963"/>
<text text-anchor="start" x="9" y="-971" font-family="Times,serif" font-size="10.00" fill="#000000">urlKey: STRING</text>
<polygon fill="none" stroke="#000000" points="4,-941 4,-963 106,-963 106,-941 4,-941"/>
<text text-anchor="start" x="8.762" y="-949" font-family="Times,serif" font-size="10.00" fill="#000000">isEnabled: BOOLEAN</text>
<polygon fill="none" stroke="#000000" points="4,-919 4,-941 106,-941 106,-919 4,-919"/>
<text text-anchor="start" x="9" y="-927" font-family="Times,serif" font-size="10.00" fill="#000000">title: STRING</text>
<polygon fill="none" stroke="#000000" points="4,-897 4,-919 106,-919 106,-897 4,-897"/>
<text text-anchor="start" x="9" y="-905" font-family="Times,serif" font-size="10.00" fill="#000000">content: STRING</text>
</g>
<!-- Product -->
<g id="node15" class="node">
<title>Product</title>
<polygon fill="#add8e6" stroke="transparent" points="508.5,-880 508.5,-902 653.5,-902 653.5,-880 508.5,-880"/>
<polygon fill="none" stroke="#000000" points="508.5,-880 508.5,-902 653.5,-902 653.5,-880 508.5,-880"/>
<text text-anchor="start" x="565.447" y="-889" font-family="Times,serif" font-weight="bold" font-size="10.00" fill="#000000">Product</text>
<polygon fill="none" stroke="#000000" points="508.5,-858 508.5,-880 653.5,-880 653.5,-858 508.5,-858"/>
<text text-anchor="start" x="513.5" y="-867" font-family="Times,serif" text-decoration="underline" font-size="10.00" fill="#000000">id</text>
<text text-anchor="start" x="521.279" y="-867" font-family="Times,serif" font-size="10.00" fill="#000000">: NUMBER</text>
<polygon fill="none" stroke="#000000" points="508.5,-836 508.5,-858 653.5,-858 653.5,-836 508.5,-836"/>
<text text-anchor="start" x="513.5" y="-844" font-family="Times,serif" font-size="10.00" fill="#000000">urlKey: STRING</text>
<polygon fill="none" stroke="#000000" points="508.5,-814 508.5,-836 653.5,-836 653.5,-814 508.5,-814"/>
<text text-anchor="start" x="513.5" y="-822" font-family="Times,serif" font-size="10.00" fill="#000000">sku: STRING</text>
<polygon fill="none" stroke="#000000" points="508.5,-792 508.5,-814 653.5,-814 653.5,-792 508.5,-792"/>
<text text-anchor="start" x="513.5" y="-800" font-family="Times,serif" font-size="10.00" fill="#000000">isEnabled: BOOLEAN</text>
<polygon fill="none" stroke="#000000" points="508.5,-770 508.5,-792 653.5,-792 653.5,-770 508.5,-770"/>
<text text-anchor="start" x="513.5" y="-778" font-family="Times,serif" font-size="10.00" fill="#000000">name: STRING</text>
<polygon fill="none" stroke="#000000" points="508.5,-748 508.5,-770 653.5,-770 653.5,-748 508.5,-748"/>
<text text-anchor="start" x="513.5" y="-756" font-family="Times,serif" font-size="10.00" fill="#000000">price: NUMBER</text>
<polygon fill="none" stroke="#000000" points="508.5,-726 508.5,-748 653.5,-748 653.5,-726 508.5,-726"/>
<text text-anchor="start" x="513.5" y="-734" font-family="Times,serif" font-size="10.00" fill="#000000">stockQuantity: NUMBER</text>
<polygon fill="none" stroke="#000000" points="508.5,-704 508.5,-726 653.5,-726 653.5,-704 508.5,-704"/>
<text text-anchor="start" x="513.5" y="-712" font-family="Times,serif" font-size="10.00" fill="#000000">specialDiscountType: STRING</text>
<polygon fill="none" stroke="#000000" points="508.5,-682 508.5,-704 653.5,-704 653.5,-682 508.5,-682"/>
<text text-anchor="start" x="513.101" y="-690" font-family="Times,serif" font-size="10.00" fill="#000000">specialDiscountValue: NUMBER</text>
<polygon fill="none" stroke="#000000" points="508.5,-660 508.5,-682 653.5,-682 653.5,-660 508.5,-660"/>
<text text-anchor="start" x="513.5" y="-668" font-family="Times,serif" font-size="10.00" fill="#000000">specialTaxRate: NUMBER</text>
<polygon fill="none" stroke="#000000" points="508.5,-638 508.5,-660 653.5,-660 653.5,-638 508.5,-638"/>
<text text-anchor="start" x="513.5" y="-646" font-family="Times,serif" font-size="10.00" fill="#000000">shortDescription: STRING</text>
<polygon fill="none" stroke="#000000" points="508.5,-616 508.5,-638 653.5,-638 653.5,-616 508.5,-616"/>
<text text-anchor="start" x="513.5" y="-624" font-family="Times,serif" font-size="10.00" fill="#000000">longDescription: TEXT</text>
<polygon fill="none" stroke="#000000" points="508.5,-594 508.5,-616 653.5,-616 653.5,-594 508.5,-594"/>
<text text-anchor="start" x="513.5" y="-602" font-family="Times,serif" font-size="10.00" fill="#000000">media: JSON</text>
<polygon fill="none" stroke="#000000" points="508.5,-572 508.5,-594 653.5,-594 653.5,-572 508.5,-572"/>
<text text-anchor="start" x="513.5" y="-580" font-family="Times,serif" font-size="10.00" fill="#000000">attributeValues: JSON</text>
<polygon fill="none" stroke="#000000" points="508.5,-550 508.5,-572 653.5,-572 653.5,-550 508.5,-550"/>
<text text-anchor="start" x="513.5" y="-559" font-family="Times,serif" font-style="italic" text-decoration="underline" font-size="10.00" fill="#000000">attribute_set_id</text>
<text text-anchor="start" x="575.709" y="-559" font-family="Times,serif" font-size="10.00" fill="#000000">: NUMBER</text>
</g>
<!-- Product&#45;&gt;AttributeSet -->
<g id="edge14" class="edge">
<title>Product&#45;&gt;AttributeSet</title>
<path fill="none" stroke="#000000" stroke-width=".75" d="M659.3388,-738.1961C704.9801,-745.2566 761.1018,-753.9384 800.9753,-760.1067"/>
<polygon fill="#000000" stroke="#000000" stroke-width=".75" points="659.1865,-738.1726 653.6698,-734.587 656.2218,-737.7139 653.257,-737.2552 653.257,-737.2552 653.257,-737.2552 656.2218,-737.7139 652.8442,-739.9235 659.1865,-738.1726 659.1865,-738.1726"/>
</g>
<!-- Product&#45;&gt;CartItem -->
<g id="edge7" class="edge">
<title>Product&#45;&gt;CartItem</title>
<path fill="none" stroke="#000000" stroke-width=".75" d="M653.257,-664.9002C698.3279,-627.0506 755.3025,-579.2045 796.6823,-544.4546"/>
<polygon fill="#000000" stroke="#000000" stroke-width=".75" points="796.8008,-544.3552 803.1319,-542.5642 799.0981,-542.4259 801.3955,-540.4966 801.3955,-540.4966 801.3955,-540.4966 799.0981,-542.4259 799.6591,-538.429 796.8008,-544.3552 796.8008,-544.3552"/>
</g>
<!-- Product&#45;&gt;ProductCategory -->
<g id="edge8" class="edge">
<title>Product&#45;&gt;ProductCategory</title>
<path fill="none" stroke="#000000" stroke-width=".75" d="M653.257,-773.4328C697.3919,-802.2058 752.9412,-838.4202 794.0843,-865.2428"/>
<polygon fill="#000000" stroke="#000000" stroke-width=".75" points="794.2561,-865.3548 797.8077,-870.8934 796.7692,-866.9932 799.2823,-868.6316 799.2823,-868.6316 799.2823,-868.6316 796.7692,-866.9932 800.7569,-866.3698 794.2561,-865.3548 794.2561,-865.3548"/>
</g>
<!-- OrderItem -->
<g id="node17" class="node">
<title>OrderItem</title>
<polygon fill="#add8e6" stroke="transparent" points="5,-693 5,-715 106,-715 106,-693 5,-693"/>
<polygon fill="none" stroke="#000000" points="5,-693 5,-715 106,-715 106,-693 5,-693"/>
<text text-anchor="start" x="34.679" y="-702" font-family="Times,serif" font-weight="bold" font-size="10.00" fill="#000000">OrderItem</text>
<polygon fill="none" stroke="#000000" points="5,-671 5,-693 106,-693 106,-671 5,-671"/>
<text text-anchor="start" x="10" y="-680" font-family="Times,serif" text-decoration="underline" font-size="10.00" fill="#000000">id</text>
<text text-anchor="start" x="17.779" y="-680" font-family="Times,serif" font-size="10.00" fill="#000000">: NUMBER</text>
<polygon fill="none" stroke="#000000" points="5,-649 5,-671 106,-671 106,-649 5,-649"/>
<text text-anchor="start" x="10" y="-657" font-family="Times,serif" font-size="10.00" fill="#000000">quantity: NUMBER</text>
<polygon fill="none" stroke="#000000" points="5,-627 5,-649 106,-649 106,-627 5,-627"/>
<text text-anchor="start" x="10" y="-635" font-family="Times,serif" font-size="10.00" fill="#000000">totalTax: NUMBER</text>
<polygon fill="none" stroke="#000000" points="5,-605 5,-627 106,-627 106,-605 5,-605"/>
<text text-anchor="start" x="10" y="-613" font-family="Times,serif" font-size="10.00" fill="#000000">subtotal: NUMBER</text>
<polygon fill="none" stroke="#000000" points="5,-583 5,-605 106,-605 106,-583 5,-583"/>
<text text-anchor="start" x="10" y="-591" font-family="Times,serif" font-size="10.00" fill="#000000">total: NUMBER</text>
<polygon fill="none" stroke="#000000" points="5,-561 5,-583 106,-583 106,-561 5,-561"/>
<text text-anchor="start" x="10" y="-570" font-family="Times,serif" font-style="italic" text-decoration="underline" font-size="10.00" fill="#000000">order_id</text>
<text text-anchor="start" x="43.876" y="-570" font-family="Times,serif" font-size="10.00" fill="#000000">: NUMBER</text>
<polygon fill="none" stroke="#000000" points="5,-539 5,-561 106,-561 106,-539 5,-539"/>
<text text-anchor="start" x="9.8105" y="-548" font-family="Times,serif" font-style="italic" text-decoration="underline" font-size="10.00" fill="#000000">product_id</text>
<text text-anchor="start" x="53.1365" y="-548" font-family="Times,serif" font-size="10.00" fill="#000000">: NUMBER</text>
</g>
<!-- OrderItem&#45;&gt;Order -->
<g id="edge15" class="edge">
<title>OrderItem&#45;&gt;Order</title>
<path fill="none" stroke="#000000" stroke-width=".75" d="M109.603,-560.1436C152.2155,-507.9684 211.1557,-435.8015 253.8956,-383.4704"/>
<polygon fill="#000000" stroke="#000000" stroke-width=".75" points="109.5856,-560.1649 103.699,-563.104 107.6879,-562.4884 105.7902,-564.812 105.7902,-564.812 105.7902,-564.812 107.6879,-562.4884 107.8814,-566.5199 109.5856,-560.1649 109.5856,-560.1649"/>
</g>
<!-- OrderItem&#45;&gt;Product -->
<g id="edge16" class="edge">
<title>OrderItem&#45;&gt;Product</title>
<path fill="none" stroke="#000000" stroke-width=".75" d="M111.5423,-647.7589C150.9647,-661.4517 205.0611,-678.7003 254,-689 340.2479,-707.1519 441.3134,-716.8704 507.8969,-721.7234"/>
<polygon fill="#000000" stroke="#000000" stroke-width=".75" points="111.4993,-647.7439 106.725,-643.2166 108.667,-646.7548 105.8348,-645.7657 105.8348,-645.7657 105.8348,-645.7657 108.667,-646.7548 104.9446,-648.3147 111.4993,-647.7439 111.4993,-647.7439"/>
</g>
<!-- Review -->
<g id="node19" class="node">
<title>Review</title>
<polygon fill="#add8e6" stroke="transparent" points="256,-649 256,-671 363,-671 363,-649 256,-649"/>
<polygon fill="none" stroke="#000000" points="256,-649 256,-671 363,-671 363,-649 256,-649"/>
<text text-anchor="start" x="294.2275" y="-658" font-family="Times,serif" font-weight="bold" font-size="10.00" fill="#000000">Review</text>
<polygon fill="none" stroke="#000000" points="256,-627 256,-649 363,-649 363,-627 256,-627"/>
<text text-anchor="start" x="261" y="-636" font-family="Times,serif" text-decoration="underline" font-size="10.00" fill="#000000">id</text>
<text text-anchor="start" x="268.779" y="-636" font-family="Times,serif" font-size="10.00" fill="#000000">: NUMBER</text>
<polygon fill="none" stroke="#000000" points="256,-605 256,-627 363,-627 363,-605 256,-605"/>
<text text-anchor="start" x="261" y="-613" font-family="Times,serif" font-size="10.00" fill="#000000">status: STRING</text>
<polygon fill="none" stroke="#000000" points="256,-583 256,-605 363,-605 363,-583 256,-583"/>
<text text-anchor="start" x="261" y="-591" font-family="Times,serif" font-size="10.00" fill="#000000">date: DATE</text>
<polygon fill="none" stroke="#000000" points="256,-561 256,-583 363,-583 363,-561 256,-561"/>
<text text-anchor="start" x="261" y="-569" font-family="Times,serif" font-size="10.00" fill="#000000">title: STRING</text>
<polygon fill="none" stroke="#000000" points="256,-539 256,-561 363,-561 363,-539 256,-539"/>
<text text-anchor="start" x="261" y="-547" font-family="Times,serif" font-size="10.00" fill="#000000">content: STRING</text>
<polygon fill="none" stroke="#000000" points="256,-517 256,-539 363,-539 363,-517 256,-517"/>
<text text-anchor="start" x="261" y="-525" font-family="Times,serif" font-size="10.00" fill="#000000">rating: NUMBER</text>
<polygon fill="none" stroke="#000000" points="256,-495 256,-517 363,-517 363,-495 256,-495"/>
<text text-anchor="start" x="260.757" y="-504" font-family="Times,serif" font-style="italic" text-decoration="underline" font-size="10.00" fill="#000000">customer_id</text>
<text text-anchor="start" x="310.19" y="-504" font-family="Times,serif" font-size="10.00" fill="#000000">: NUMBER</text>
<polygon fill="none" stroke="#000000" points="256,-473 256,-495 363,-495 363,-473 256,-473"/>
<text text-anchor="start" x="261" y="-482" font-family="Times,serif" font-style="italic" text-decoration="underline" font-size="10.00" fill="#000000">product_id</text>
<text text-anchor="start" x="304.326" y="-482" font-family="Times,serif" font-size="10.00" fill="#000000">: NUMBER</text>
</g>
<!-- Review&#45;&gt;Customer -->
<g id="edge17" class="edge">
<title>Review&#45;&gt;Customer</title>
<path fill="none" stroke="#000000" stroke-width=".75" d="M367.7235,-522.7402C405.8052,-492.7131 457.5588,-455.366 508,-430 605.8324,-380.8018 730.1258,-347.1002 799.3502,-330.6282"/>
<polygon fill="#000000" stroke="#000000" stroke-width=".75" points="367.3805,-523.0119 361.0012,-524.6225 365.0293,-524.8753 362.6782,-526.7386 362.6782,-526.7386 362.6782,-526.7386 365.0293,-524.8753 364.3552,-528.8547 367.3805,-523.0119 367.3805,-523.0119"/>
</g>
<!-- Review&#45;&gt;Product -->
<g id="edge18" class="edge">
<title>Review&#45;&gt;Product</title>
<path fill="none" stroke="#000000" stroke-width=".75" d="M368.0872,-605.5154C409.1743,-628.8208 464.2008,-660.0329 507.952,-684.8494"/>
<polygon fill="#000000" stroke="#000000" stroke-width=".75" points="367.8586,-605.3858 363.9718,-600.0769 365.2491,-603.9056 362.6397,-602.4254 362.6397,-602.4254 362.6397,-602.4254 365.2491,-603.9056 361.3075,-604.774 367.8586,-605.3858 367.8586,-605.3858"/>
</g>
</g>
</svg>
